<svg width="806" height="384" viewBox="0 0 806 384" fill="none" xmlns="http://www.w3.org/2000/svg">
<rect y="24" width="262" height="148" fill="#ECF6FF"/>
<rect x="543" y="24" width="263" height="148" fill="#ECF6FF"/>
<rect y="179" width="262" height="148" fill="#ECF6FF"/>
<rect x="543" y="179" width="263" height="148" fill="#ECF6FF"/>
<path d="M136.248 257.051C136.119 256.954 135.942 256.89 135.748 256.906C135.748 256.906 135.748 256.906 135.732 256.906H135.587C135.426 256.858 135.2 256.664 135.006 256.503C134.732 256.261 134.442 256.003 134.039 255.874C133.523 255.697 132.91 255.745 132.201 255.987C131.507 255.745 130.878 255.713 130.362 255.874C130.217 255.922 130.088 255.987 129.943 256.084C129.862 256.132 129.798 256.18 129.717 256.245L129.701 256.261C129.669 256.293 129.637 256.309 129.604 256.342L129.588 256.358C129.556 256.374 129.54 256.406 129.508 256.422L129.395 256.519C129.282 256.616 129.185 256.696 129.088 256.777L128.976 256.858L128.959 256.874H128.943C128.927 256.89 128.911 256.89 128.879 256.906C128.879 256.906 128.863 256.906 128.863 256.922H128.847H128.83H128.718C128.621 256.922 128.508 256.938 128.411 256.97C128.218 257.035 128.073 257.164 128.008 257.309V257.325C128.008 257.325 128.008 257.325 128.008 257.341C127.944 257.503 127.976 257.68 128.105 257.825C128.185 257.922 128.298 258.002 128.427 258.035C128.443 258.035 128.46 258.051 128.46 258.051L128.476 258.067L128.556 258.131L128.572 258.148L128.589 258.164C128.621 258.196 128.637 258.212 128.669 258.244L128.685 258.26C128.718 258.293 128.75 258.341 128.782 258.389C128.782 258.389 128.782 258.389 128.782 258.406C128.798 258.438 128.83 258.47 128.847 258.486C128.863 258.518 128.879 258.535 128.911 258.567C128.943 258.599 128.959 258.647 128.992 258.68L129.008 258.712C129.024 258.744 129.04 258.76 129.072 258.793L129.105 258.825C129.121 258.857 129.153 258.873 129.169 258.905L129.185 258.922C129.217 258.954 129.25 258.986 129.282 259.018C129.314 259.051 129.33 259.083 129.363 259.099L129.379 259.115C129.411 259.147 129.427 259.163 129.459 259.196L129.475 259.212C129.54 259.276 129.621 259.325 129.685 259.389C129.717 259.421 129.75 259.438 129.782 259.47L129.798 259.486C129.83 259.502 129.862 259.534 129.911 259.55C129.911 259.55 129.911 259.55 129.927 259.55C130.008 259.599 130.088 259.647 130.185 259.696C130.233 259.712 130.266 259.728 130.314 259.76C130.443 259.825 130.588 259.873 130.733 259.905C131.152 260.018 131.62 260.083 132.201 260.083C133.813 260.083 134.765 259.631 135.506 258.551C135.748 258.196 135.909 258.067 135.99 258.019C136.071 258.002 136.135 257.97 136.2 257.922C136.361 257.825 136.474 257.664 136.474 257.486C136.49 257.325 136.409 257.164 136.248 257.051ZM128.347 258.002C128.331 258.002 128.314 257.986 128.314 257.986C128.331 257.986 128.347 257.986 128.347 258.002Z" fill="#2D3B48"/>
<path d="M125.557 250.101C126.617 250.101 127.476 249.242 127.476 248.182C127.476 247.122 126.617 246.263 125.557 246.263C124.497 246.263 123.638 247.122 123.638 248.182C123.638 249.242 124.497 250.101 125.557 250.101Z" fill="#2D3B48"/>
<path d="M138.957 250.101C140.017 250.101 140.876 249.242 140.876 248.182C140.876 247.122 140.017 246.263 138.957 246.263C137.897 246.263 137.038 247.122 137.038 248.182C137.038 249.242 137.897 250.101 138.957 250.101Z" fill="#2D3B48"/>
<path d="M149.439 254.971H150.196C154.179 254.971 157.404 251.73 157.404 247.763C157.404 244.683 155.453 242.038 152.712 241.006C153.067 239.684 153.421 238.378 153.712 237.104C153.97 238.023 154.212 238.975 154.453 239.974C154.502 240.152 154.663 240.281 154.84 240.281C154.857 240.281 154.873 240.281 154.889 240.281C155.098 240.265 155.244 240.087 155.244 239.878C155.26 237.862 155.227 235.685 155.002 233.541C155.308 234.169 155.614 234.798 155.921 235.476C155.985 235.621 156.13 235.701 156.292 235.701C156.324 235.701 156.372 235.701 156.405 235.685C156.598 235.621 156.711 235.443 156.695 235.25C155.969 230.154 155.002 225.349 151.325 222.398C152.857 222.446 154.47 222.575 156.195 222.753C156.405 222.769 156.582 222.64 156.63 222.446C156.679 222.253 156.566 222.043 156.372 221.979C153.325 220.866 149.826 219.754 146.471 219.399C145.343 217.19 143.972 215.077 142.634 213.174C142.521 213.013 142.295 212.949 142.118 213.045C141.94 213.142 141.86 213.352 141.924 213.545C142.279 214.481 142.618 215.384 142.908 216.254C142.166 215.722 141.311 215.271 140.344 214.916C138.28 214.174 135.716 213.852 132.975 213.997C125.348 213.771 118.059 216.029 110.722 220.882C110.545 220.995 110.496 221.221 110.593 221.398C110.657 221.543 110.803 221.624 110.948 221.624C110.996 221.624 111.044 221.608 111.093 221.592C112.77 220.979 114.366 220.431 115.93 219.947C112.093 222.511 109.222 227.348 107.045 231.557C106.949 231.735 107.013 231.96 107.174 232.073C107.239 232.122 107.32 232.138 107.4 232.138C107.513 232.138 107.626 232.089 107.707 231.993C109.061 230.445 110.383 229.042 111.673 227.816C110.174 231.686 109.384 235.959 109.287 240.732C109.287 240.942 109.432 241.119 109.642 241.135C109.658 241.135 109.674 241.135 109.69 241.135C109.867 241.135 110.029 241.006 110.077 240.829C110.512 239.136 110.98 237.556 111.464 236.056C111.706 237.523 112.093 239.055 112.625 240.684C109.432 241.426 107.045 244.296 107.045 247.698C107.045 251.681 110.287 254.906 114.253 254.906H115.011C116.172 257.825 118.075 260.389 120.462 262.372L115.963 265.404C113.27 267.226 111.657 270.241 111.657 273.499V273.628C111.657 278.159 114.737 282.061 119.123 283.125C123.348 284.141 127.702 284.657 132.056 284.657C136.184 284.657 140.312 284.19 144.327 283.271L145.214 283.061C149.68 282.045 152.793 278.127 152.793 273.547C152.793 270.258 151.148 267.21 148.39 265.388L143.891 262.421C146.326 260.518 148.245 257.938 149.439 254.971ZM150.745 248.134V243.828C152.68 244.103 154.163 245.763 154.163 247.779C154.163 249.795 152.664 251.456 150.745 251.73V248.134ZM113.689 248.134V251.714C111.754 251.439 110.27 249.779 110.27 247.763C110.27 245.747 111.77 244.086 113.689 243.812V248.134ZM146.955 246.892C146.955 248.553 146.294 250.085 145.101 251.23C143.908 252.375 142.343 252.971 140.683 252.907C137.57 252.794 135.023 250.262 134.894 247.134C134.894 247.037 134.894 246.957 134.894 246.86C134.894 245.796 135.78 244.925 136.877 244.925H144.988C146.068 244.925 146.955 245.796 146.971 246.844V246.892H146.955ZM119.607 221.237C122.751 218.754 125.928 217.996 126.057 217.964C126.492 217.867 126.928 218.141 127.025 218.56C127.121 218.996 126.863 219.431 126.428 219.528C126.396 219.544 123.461 220.253 120.607 222.495C120.462 222.608 120.284 222.672 120.107 222.672C119.865 222.672 119.639 222.559 119.478 222.366C119.204 222.027 119.268 221.511 119.607 221.237ZM115.979 226.784C115.592 226.558 115.463 226.058 115.689 225.688C116.124 224.946 116.624 224.236 117.188 223.575C117.478 223.237 117.978 223.188 118.317 223.478C118.656 223.769 118.704 224.269 118.414 224.607C117.914 225.204 117.462 225.833 117.075 226.494C116.93 226.752 116.656 226.897 116.382 226.897C116.237 226.897 116.108 226.865 115.979 226.784ZM116.914 242.167V241.587C117.575 241.651 118.252 241.668 118.93 241.668H120.204C125.541 241.668 130.572 239.926 134.748 236.637C136.345 235.379 138.602 235.572 140.005 237.072C142.037 239.249 144.633 240.732 147.536 241.345V242.167V243.312C146.81 242.813 145.939 242.506 145.004 242.506H136.893C135.248 242.506 133.813 243.409 133.071 244.731C132.539 244.554 131.959 244.554 131.411 244.731C130.653 243.409 129.218 242.506 127.573 242.506H119.462C118.51 242.506 117.64 242.813 116.93 243.312V242.167H116.914ZM117.478 246.876C117.478 245.812 118.365 244.941 119.462 244.941H127.573C128.653 244.941 129.54 245.812 129.556 246.86V246.892C129.556 248.553 128.895 250.085 127.702 251.23C126.509 252.375 124.944 252.971 123.283 252.907C120.171 252.794 117.624 250.262 117.495 247.134C117.478 247.053 117.478 246.957 117.478 246.876ZM137.183 262.598C137.135 262.614 137.103 262.63 137.054 262.646C136.974 262.679 136.877 262.711 136.796 262.727C136.684 262.759 136.571 262.792 136.458 262.824C136.393 262.84 136.329 262.856 136.264 262.872C136.151 262.904 136.055 262.937 135.942 262.953C135.893 262.969 135.845 262.985 135.797 262.985C135.668 263.017 135.539 263.05 135.41 263.066C135.377 263.066 135.361 263.082 135.329 263.082C135.168 263.114 135.006 263.146 134.845 263.179C134.829 263.179 134.797 263.179 134.781 263.195C134.636 263.211 134.507 263.243 134.361 263.259C134.329 263.259 134.297 263.275 134.265 263.275C133.942 263.324 133.62 263.356 133.297 263.372C133.265 263.372 133.217 263.372 133.184 263.372C133.055 263.372 132.926 263.388 132.813 263.388C132.765 263.388 132.733 263.388 132.684 263.388C132.523 263.388 132.362 263.404 132.201 263.404C132.039 263.404 131.878 263.404 131.717 263.388C131.669 263.388 131.636 263.388 131.588 263.388C131.459 263.388 131.33 263.372 131.201 263.372C131.169 263.372 131.136 263.372 131.088 263.372C130.927 263.356 130.766 263.34 130.604 263.324C130.588 263.324 130.572 263.324 130.572 263.324C130.427 263.308 130.266 263.291 130.121 263.275C130.088 263.275 130.056 263.259 130.024 263.259C129.879 263.243 129.734 263.211 129.588 263.195C129.572 263.195 129.556 263.195 129.54 263.195C129.379 263.162 129.218 263.13 129.056 263.098C129.024 263.098 128.976 263.082 128.943 263.082C128.831 263.05 128.702 263.033 128.589 263.001C128.54 262.985 128.492 262.985 128.444 262.969C128.298 262.937 128.169 262.904 128.04 262.856C127.976 262.84 127.911 262.824 127.847 262.792C127.766 262.759 127.686 262.743 127.605 262.711C127.524 262.679 127.444 262.663 127.363 262.63C127.315 262.614 127.266 262.598 127.218 262.582C122.751 261.034 119.236 257.486 117.72 253.02C119.172 254.39 121.09 255.245 123.187 255.326C123.3 255.326 123.396 255.326 123.509 255.326C125.702 255.326 127.782 254.487 129.363 252.955C130.959 251.407 131.878 249.359 131.943 247.15C131.959 247.134 131.991 247.118 132.007 247.086C132.12 246.973 132.297 246.973 132.41 247.086C132.426 247.102 132.459 247.118 132.475 247.134C132.475 247.166 132.475 247.199 132.475 247.215C132.652 251.585 136.232 255.132 140.602 255.293C140.715 255.293 140.812 255.293 140.924 255.293C143.085 255.293 145.117 254.487 146.697 253.004C145.181 257.519 141.65 261.066 137.183 262.598Z" fill="#2D3B48"/>
<rect x="273" y="179" width="262" height="148" fill="#ECF6FF"/>
<rect x="274" y="24" width="262" height="148" fill="#ECF6FF"/>
<mask id="mask0" mask-type="alpha" maskUnits="userSpaceOnUse" x="274" y="179" width="262" height="132">
<rect x="274" y="179" width="262" height="132" fill="#ECF6FF"/>
</mask>
<g mask="url(#mask0)">
<path d="M299.341 218.672H545.017V296.128C545.017 298.201 543.336 299.882 541.264 299.882H303.095C301.022 299.882 299.341 298.201 299.341 296.128V218.672Z" stroke="#ECF6FF" stroke-width="0.682432"/>
<path d="M299 208.095C299 205.833 300.833 204 303.095 204H541.264C543.525 204 545.358 205.833 545.358 208.095V218.331H299V208.095Z" fill="#CCD0D3"/>
<path d="M299 297.905C299 300.167 300.833 302 303.095 302H540.905C543.167 302 545 300.167 545 297.905V219H299V297.905Z" fill="white"/>
<path d="M309.26 238.01L313.241 236.019V236.653L310.521 238.006L313.241 239.373V240L309.26 238.01ZM314.124 239.784V239.062C314.398 239.24 314.687 239.366 314.993 239.439C315.298 239.51 315.557 239.545 315.77 239.545C316.115 239.545 316.363 239.491 316.514 239.381C316.666 239.268 316.741 239.129 316.741 238.963C316.741 238.853 316.706 238.759 316.635 238.68C316.564 238.602 316.388 238.506 316.107 238.391L315.873 238.296L315.4 238.109C314.892 237.911 314.571 237.727 314.439 237.559C314.305 237.393 314.238 237.19 314.238 236.95C314.238 236.613 314.367 236.336 314.626 236.118C314.888 235.901 315.311 235.792 315.895 235.792C316.332 235.792 316.746 235.856 317.137 235.983V236.602C316.688 236.441 316.265 236.36 315.869 236.36C315.581 236.36 315.355 236.412 315.191 236.514C315.03 236.614 314.949 236.74 314.949 236.892C314.949 237.038 315.02 237.156 315.162 237.244C315.301 237.332 315.528 237.433 315.843 237.548L316.305 237.716C316.728 237.87 317.025 238.038 317.196 238.219C317.367 238.399 317.452 238.625 317.452 238.897C317.452 239.251 317.316 239.543 317.042 239.773C316.771 240 316.336 240.114 315.737 240.114C315.214 240.114 314.676 240.004 314.124 239.784ZM322.031 239.883C321.574 240.037 321.139 240.114 320.726 240.114C320.315 240.114 319.95 240.02 319.63 239.831C319.312 239.641 319.064 239.384 318.886 239.062C318.707 238.737 318.618 238.368 318.618 237.955C318.618 237.334 318.82 236.818 319.223 236.408C319.628 235.997 320.117 235.792 320.689 235.792C321.112 235.792 321.559 235.872 322.031 236.03V236.686C321.554 236.469 321.128 236.36 320.751 236.36C320.502 236.36 320.267 236.423 320.048 236.547C319.828 236.669 319.658 236.861 319.538 237.123C319.418 237.384 319.358 237.653 319.358 237.929C319.358 238.298 319.473 238.65 319.703 238.985C319.935 239.319 320.298 239.487 320.792 239.487C320.941 239.487 321.087 239.477 321.231 239.458C321.376 239.436 321.642 239.359 322.031 239.227V239.883ZM323.442 240V235.906H324.123V236.8C324.336 236.463 324.579 236.211 324.853 236.045C325.129 235.876 325.436 235.792 325.773 235.792C326.02 235.792 326.267 235.83 326.513 235.906V237.383H325.857V236.448C325.742 236.429 325.652 236.419 325.586 236.419C325.332 236.419 325.083 236.519 324.838 236.719C324.594 236.92 324.356 237.22 324.123 237.621V240H323.442ZM328.749 240V236.474H327.613V235.906H329.431V239.432H330.571V240H328.749ZM328.636 234.429C328.636 234.275 328.688 234.16 328.793 234.084C328.898 234.008 328.997 233.97 329.09 233.97C329.185 233.97 329.286 234.008 329.391 234.084C329.496 234.16 329.548 234.275 329.548 234.429C329.548 234.58 329.496 234.694 329.391 234.769C329.286 234.845 329.185 234.883 329.09 234.883C328.997 234.883 328.898 234.845 328.793 234.769C328.688 234.694 328.636 234.58 328.636 234.429ZM332.741 236.826C332.951 236.484 333.201 236.226 333.492 236.052C333.783 235.879 334.051 235.792 334.295 235.792C334.637 235.792 334.945 235.94 335.219 236.236C335.492 236.531 335.629 236.98 335.629 237.581C335.629 238.055 335.538 238.479 335.354 238.853C335.173 239.224 334.932 239.519 334.629 239.736C334.326 239.951 333.95 240.059 333.503 240.059C333.376 240.059 333.181 240.045 332.917 240.018C332.878 240.013 332.819 240.007 332.741 240V241.591H332.059V235.906H332.741V236.826ZM332.741 237.636V239.392C332.988 239.455 333.215 239.487 333.423 239.487C333.836 239.487 334.183 239.326 334.464 239.003C334.747 238.678 334.889 238.234 334.889 237.672C334.889 237.264 334.812 236.958 334.658 236.752C334.504 236.547 334.329 236.445 334.134 236.445C333.921 236.445 333.687 236.552 333.43 236.767C333.176 236.982 332.946 237.272 332.741 237.636ZM340.042 239.835C339.722 239.969 339.49 240.049 339.346 240.073C339.202 240.1 339.062 240.114 338.928 240.114C338.642 240.114 338.381 240.059 338.144 239.949C337.907 239.839 337.727 239.676 337.605 239.461C337.485 239.246 337.425 238.914 337.425 238.464V236.815H336.403V236.247H337.425V234.597H338.107V236.247H339.929V236.815H338.107V238.453C338.107 238.783 338.146 239.016 338.224 239.153C338.302 239.288 338.406 239.387 338.536 239.45C338.668 239.514 338.823 239.545 339.001 239.545C339.331 239.545 339.678 239.442 340.042 239.234V239.835ZM344.8 238.01L340.819 240V239.366L343.543 238.013L340.819 236.646V236.019L344.8 238.01ZM315.176 251V245.656H313.952V245.084H315.858V250.432H317.137V251H315.176ZM321.99 250.729C321.445 250.988 320.93 251.117 320.443 251.117C320.074 251.117 319.745 251.026 319.454 250.842C319.163 250.659 318.93 250.398 318.754 250.058C318.58 249.716 318.493 249.351 318.493 248.962C318.493 248.588 318.576 248.229 318.743 247.884C318.909 247.54 319.141 247.272 319.439 247.082C319.737 246.889 320.07 246.792 320.436 246.792C320.922 246.792 321.312 246.966 321.605 247.313C321.901 247.66 322.049 248.195 322.049 248.918V249.065H319.226C319.226 249.348 319.285 249.607 319.402 249.842C319.522 250.076 319.679 250.252 319.872 250.37C320.065 250.487 320.285 250.545 320.531 250.545C320.971 250.545 321.458 250.399 321.99 250.106V250.729ZM319.267 248.555H321.308V248.456C321.308 248.121 321.227 247.855 321.063 247.657C320.899 247.459 320.68 247.36 320.407 247.36C320.131 247.36 319.891 247.462 319.688 247.664C319.488 247.865 319.347 248.162 319.267 248.555ZM326.517 250.835C326.197 250.969 325.965 251.049 325.821 251.073C325.676 251.1 325.537 251.114 325.403 251.114C325.117 251.114 324.855 251.059 324.618 250.949C324.381 250.839 324.202 250.676 324.079 250.461C323.96 250.246 323.9 249.914 323.9 249.464V247.815H322.877V247.247H323.9V245.597H324.582V247.247H326.403V247.815H324.582V249.453C324.582 249.783 324.621 250.016 324.699 250.153C324.777 250.288 324.881 250.387 325.011 250.45C325.142 250.514 325.298 250.545 325.476 250.545C325.806 250.545 326.153 250.442 326.517 250.234V250.835ZM358.325 248.101V248.669H354.345V248.101H358.325ZM358.325 249.38V249.948H354.345V249.38H358.325ZM309.26 260.01L313.241 258.019V258.653L310.521 260.006L313.241 261.373V262L309.26 260.01ZM314.3 262.172H313.629L317.247 256.143H317.896L314.3 262.172ZM318.633 261.784V261.062C318.906 261.24 319.196 261.366 319.501 261.439C319.807 261.51 320.066 261.545 320.278 261.545C320.623 261.545 320.871 261.491 321.023 261.381C321.174 261.268 321.25 261.129 321.25 260.963C321.25 260.853 321.214 260.759 321.143 260.68C321.073 260.602 320.897 260.506 320.616 260.391L320.381 260.296L319.908 260.109C319.4 259.911 319.08 259.727 318.948 259.559C318.814 259.393 318.746 259.19 318.746 258.95C318.746 258.613 318.876 258.336 319.135 258.118C319.396 257.901 319.819 257.792 320.403 257.792C320.84 257.792 321.255 257.856 321.646 257.983V258.602C321.196 258.441 320.773 258.36 320.377 258.36C320.089 258.36 319.863 258.412 319.699 258.514C319.538 258.614 319.457 258.74 319.457 258.892C319.457 259.038 319.528 259.156 319.67 259.244C319.809 259.332 320.037 259.433 320.352 259.548L320.814 259.716C321.236 259.87 321.533 260.038 321.704 260.219C321.875 260.399 321.961 260.625 321.961 260.897C321.961 261.251 321.824 261.543 321.55 261.773C321.279 262 320.844 262.114 320.245 262.114C319.723 262.114 319.185 262.004 318.633 261.784ZM326.539 261.883C326.082 262.037 325.647 262.114 325.234 262.114C324.824 262.114 324.458 262.02 324.138 261.831C323.82 261.641 323.572 261.384 323.394 261.062C323.216 260.737 323.126 260.368 323.126 259.955C323.126 259.334 323.328 258.818 323.731 258.408C324.137 257.997 324.626 257.792 325.197 257.792C325.62 257.792 326.067 257.872 326.539 258.03V258.686C326.062 258.469 325.636 258.36 325.26 258.36C325.011 258.36 324.776 258.423 324.556 258.547C324.336 258.669 324.166 258.861 324.047 259.123C323.927 259.384 323.867 259.653 323.867 259.929C323.867 260.298 323.982 260.65 324.211 260.985C324.444 261.319 324.806 261.487 325.3 261.487C325.449 261.487 325.596 261.477 325.74 261.458C325.884 261.436 326.15 261.359 326.539 261.227V261.883ZM327.95 262V257.906H328.632V258.8C328.845 258.463 329.088 258.211 329.361 258.045C329.637 257.876 329.944 257.792 330.281 257.792C330.528 257.792 330.775 257.83 331.022 257.906V259.383H330.366V258.448C330.251 258.429 330.16 258.419 330.094 258.419C329.84 258.419 329.591 258.519 329.347 258.719C329.102 258.92 328.864 259.22 328.632 259.621V262H327.95ZM333.258 262V258.474H332.121V257.906H333.939V261.432H335.079V262H333.258ZM333.144 256.429C333.144 256.275 333.197 256.16 333.302 256.084C333.407 256.008 333.506 255.97 333.599 255.97C333.694 255.97 333.794 256.008 333.899 256.084C334.004 256.16 334.057 256.275 334.057 256.429C334.057 256.58 334.004 256.694 333.899 256.769C333.794 256.845 333.694 256.883 333.599 256.883C333.506 256.883 333.407 256.845 333.302 256.769C333.197 256.694 333.144 256.58 333.144 256.429ZM337.249 258.826C337.459 258.484 337.71 258.226 338.001 258.052C338.292 257.879 338.559 257.792 338.803 257.792C339.146 257.792 339.453 257.94 339.727 258.236C340.001 258.531 340.138 258.98 340.138 259.581C340.138 260.055 340.046 260.479 339.863 260.853C339.682 261.224 339.44 261.519 339.137 261.736C338.834 261.951 338.459 262.059 338.012 262.059C337.885 262.059 337.689 262.045 337.425 262.018C337.386 262.013 337.327 262.007 337.249 262V263.591H336.568V257.906H337.249V258.826ZM337.249 259.636V261.392C337.496 261.455 337.723 261.487 337.931 261.487C338.344 261.487 338.691 261.326 338.972 261.003C339.256 260.678 339.397 260.234 339.397 259.672C339.397 259.264 339.32 258.958 339.166 258.752C339.012 258.547 338.838 258.445 338.642 258.445C338.43 258.445 338.195 258.552 337.938 258.767C337.684 258.982 337.455 259.272 337.249 259.636ZM344.551 261.835C344.231 261.969 343.999 262.049 343.854 262.073C343.71 262.1 343.571 262.114 343.437 262.114C343.151 262.114 342.889 262.059 342.652 261.949C342.415 261.839 342.235 261.676 342.113 261.461C341.994 261.246 341.934 260.914 341.934 260.464V258.815H340.911V258.247H341.934V256.597H342.615V258.247H344.437V258.815H342.615V260.453C342.615 260.783 342.655 261.016 342.733 261.153C342.811 261.288 342.915 261.387 343.044 261.45C343.176 261.514 343.331 261.545 343.51 261.545C343.84 261.545 344.187 261.442 344.551 261.234V261.835ZM349.308 260.01L345.328 262V261.366L348.051 260.013L345.328 258.646V258.019L349.308 260.01ZM309.26 282.01L313.241 280.019V280.653L310.521 282.006L313.241 283.373V284L309.26 282.01ZM314.077 284V278.084H314.758V280.8C314.954 280.485 315.19 280.238 315.466 280.06C315.742 279.881 316.018 279.792 316.294 279.792C316.526 279.792 316.738 279.852 316.928 279.972C317.121 280.089 317.256 280.232 317.331 280.401C317.393 280.53 317.434 280.668 317.456 280.815C317.478 280.959 317.489 281.258 317.489 281.713V284H316.807V281.628C316.807 281.235 316.788 280.976 316.749 280.851C316.712 280.724 316.642 280.62 316.54 280.54C316.44 280.459 316.33 280.419 316.21 280.419C315.97 280.419 315.713 280.533 315.436 280.76C315.163 280.987 314.937 281.272 314.758 281.614V284H314.077ZM320.099 283.432V279.041C319.894 279.204 319.694 279.344 319.501 279.459C319.308 279.573 319.043 279.691 318.706 279.81V279.195C319.241 278.967 319.705 278.673 320.099 278.311H320.781V283.432H322.148V284H318.706V283.432H320.099ZM326.766 282.01L322.786 284V283.366L325.509 282.013L322.786 280.646V280.019L326.766 282.01ZM385.904 282.01L389.885 280.019V280.653L387.165 282.006L389.885 283.373V284L385.904 282.01ZM390.944 284.172H390.273L393.891 278.143H394.54L390.944 284.172ZM395.229 284V278.084H395.911V280.8C396.106 280.485 396.342 280.238 396.618 280.06C396.894 279.881 397.17 279.792 397.446 279.792C397.678 279.792 397.89 279.852 398.08 279.972C398.273 280.089 398.408 280.232 398.484 280.401C398.545 280.53 398.586 280.668 398.608 280.815C398.63 280.959 398.641 281.258 398.641 281.713V284H397.959V281.628C397.959 281.235 397.94 280.976 397.901 280.851C397.864 280.724 397.795 280.62 397.692 280.54C397.592 280.459 397.482 280.419 397.362 280.419C397.123 280.419 396.865 280.533 396.589 280.76C396.315 280.987 396.089 281.272 395.911 281.614V284H395.229ZM401.251 283.432V279.041C401.046 279.204 400.847 279.344 400.654 279.459C400.46 279.573 400.195 279.691 399.858 279.81V279.195C400.393 278.967 400.858 278.673 401.251 278.311H401.933V283.432H403.3V284H399.858V283.432H401.251ZM407.918 282.01L403.938 284V283.366L406.661 282.013L403.938 280.646V280.019L407.918 282.01Z" fill="#2D37F5"/>
<path d="M332.11 251V246.906H332.792V247.8C332.988 247.485 333.223 247.238 333.5 247.06C333.776 246.881 334.052 246.792 334.328 246.792C334.57 246.792 334.79 246.857 334.988 246.986C335.186 247.113 335.324 247.281 335.402 247.489C335.483 247.696 335.523 248.104 335.523 248.713V251H334.841V248.628C334.841 248.235 334.822 247.976 334.782 247.851C334.746 247.724 334.676 247.62 334.574 247.54C334.473 247.459 334.363 247.419 334.244 247.419C334.004 247.419 333.746 247.533 333.47 247.76C333.197 247.987 332.971 248.272 332.792 248.614V251H332.11ZM339.309 250.08C339.102 250.422 338.851 250.68 338.558 250.853C338.267 251.027 337.999 251.114 337.755 251.114C337.413 251.114 337.105 250.966 336.831 250.67C336.56 250.374 336.425 249.926 336.425 249.325C336.425 248.851 336.515 248.428 336.696 248.057C336.877 247.683 337.119 247.388 337.422 247.173C337.725 246.956 338.1 246.847 338.547 246.847C338.676 246.847 338.872 246.861 339.133 246.887C339.172 246.892 339.231 246.898 339.309 246.906H339.995V249.798C339.995 250.291 340.046 250.692 340.149 251H339.438C339.384 250.775 339.341 250.469 339.309 250.08ZM339.309 249.27V247.514C339.067 247.451 338.843 247.419 338.635 247.419C338.215 247.419 337.864 247.581 337.583 247.906C337.304 248.231 337.165 248.674 337.165 249.233C337.165 249.639 337.241 249.946 337.392 250.153C337.546 250.359 337.721 250.461 337.916 250.461C338.129 250.461 338.364 250.354 338.62 250.139C338.877 249.924 339.106 249.634 339.309 249.27ZM340.819 251V246.906H341.417V247.844C341.605 247.446 341.78 247.171 341.941 247.019C342.105 246.868 342.27 246.792 342.436 246.792C342.634 246.792 342.793 246.87 342.912 247.027C343.035 247.181 343.096 247.401 343.096 247.686V247.906C343.176 247.657 343.273 247.456 343.385 247.302C343.5 247.145 343.619 247.022 343.741 246.931C343.863 246.839 344.003 246.792 344.162 246.792C344.338 246.792 344.488 246.867 344.613 247.016C344.738 247.165 344.8 247.462 344.8 247.906V251H344.203V248.203C344.203 247.974 344.195 247.817 344.181 247.734C344.166 247.649 344.137 247.584 344.093 247.54C344.049 247.496 344.001 247.474 343.95 247.474C343.823 247.474 343.686 247.572 343.539 247.767C343.395 247.96 343.247 248.281 343.096 248.731V251H342.524V248.207C342.524 247.845 342.488 247.633 342.418 247.569C342.347 247.506 342.283 247.474 342.227 247.474C342.102 247.474 341.968 247.583 341.824 247.8C341.682 248.018 341.546 248.296 341.417 248.636V251H340.819ZM349.041 250.729C348.496 250.988 347.98 251.117 347.494 251.117C347.125 251.117 346.795 251.026 346.504 250.842C346.214 250.659 345.98 250.398 345.804 250.058C345.631 249.716 345.544 249.351 345.544 248.962C345.544 248.588 345.627 248.229 345.793 247.884C345.96 247.54 346.192 247.272 346.49 247.082C346.788 246.889 347.12 246.792 347.487 246.792C347.973 246.792 348.363 246.966 348.656 247.313C348.952 247.66 349.1 248.195 349.1 248.918V249.065H346.277C346.277 249.348 346.336 249.607 346.453 249.842C346.573 250.076 346.729 250.252 346.922 250.37C347.115 250.487 347.335 250.545 347.582 250.545C348.022 250.545 348.508 250.399 349.041 250.106V250.729ZM346.318 248.555H348.359V248.456C348.359 248.121 348.277 247.855 348.114 247.657C347.95 247.459 347.731 247.36 347.457 247.36C347.181 247.36 346.942 247.462 346.739 247.664C346.539 247.865 346.398 248.162 346.318 248.555Z" fill="#439F31"/>
<path d="M365.605 247.36H365.114L364.729 245.084H365.979L365.605 247.36ZM368.35 251L367.683 246.906H368.317L368.706 249.398L368.808 249.977L368.907 249.398L369.56 246.906H370.172L370.909 249.398L371.037 249.977L371.121 249.398L371.514 246.906H372.038L371.374 251H370.736L369.952 248.365L369.827 247.785H369.809L369.695 248.361L369.014 251H368.35ZM374.373 251.114C373.786 251.114 373.317 250.91 372.965 250.502C372.613 250.091 372.437 249.574 372.437 248.951C372.437 248.328 372.613 247.812 372.965 247.404C373.317 246.996 373.786 246.792 374.373 246.792C374.957 246.792 375.425 246.996 375.776 247.404C376.128 247.812 376.304 248.328 376.304 248.951C376.304 249.574 376.128 250.091 375.776 250.502C375.425 250.91 374.957 251.114 374.373 251.114ZM374.373 250.545C374.737 250.545 375.026 250.404 375.241 250.12C375.456 249.837 375.564 249.447 375.564 248.951C375.564 248.457 375.456 248.069 375.241 247.785C375.026 247.502 374.737 247.36 374.373 247.36C374.006 247.36 373.715 247.502 373.5 247.785C373.285 248.069 373.178 248.457 373.178 248.951C373.178 249.447 373.285 249.837 373.5 250.12C373.715 250.404 374.006 250.545 374.373 250.545ZM377.543 251V246.906H378.225V247.8C378.437 247.463 378.681 247.211 378.954 247.045C379.23 246.876 379.537 246.792 379.874 246.792C380.121 246.792 380.368 246.83 380.615 246.906V248.383H379.959V247.448C379.844 247.429 379.753 247.419 379.687 247.419C379.433 247.419 379.184 247.519 378.94 247.719C378.695 247.92 378.457 248.22 378.225 248.621V251H377.543ZM382.803 251V245.656H381.579V245.084H383.485V250.432H384.764V251H382.803ZM388.946 250.08C388.739 250.422 388.488 250.68 388.195 250.853C387.904 251.027 387.636 251.114 387.392 251.114C387.05 251.114 386.742 250.966 386.468 250.67C386.197 250.374 386.062 249.926 386.062 249.325C386.062 248.851 386.152 248.428 386.333 248.057C386.514 247.683 386.756 247.388 387.059 247.173C387.362 246.956 387.737 246.847 388.184 246.847C388.313 246.847 388.509 246.861 388.77 246.887C388.809 246.892 388.868 246.898 388.946 246.906V245.084H389.632V251H388.946V250.08ZM388.946 249.27V247.514C388.704 247.451 388.479 247.419 388.272 247.419C387.851 247.419 387.501 247.581 387.22 247.906C386.941 248.231 386.802 248.674 386.802 249.233C386.802 249.639 386.878 249.946 387.029 250.153C387.183 250.359 387.358 250.461 387.553 250.461C387.766 250.461 388.001 250.354 388.257 250.139C388.514 249.924 388.743 249.634 388.946 249.27ZM392.656 247.36H392.164L391.78 245.084H393.029L392.656 247.36Z" fill="#307821"/>
<path d="M396.215 252.591V252.136C396.391 252.09 396.524 252.023 396.614 251.935C396.707 251.849 396.78 251.739 396.834 251.605C396.89 251.473 396.918 251.313 396.918 251.125C396.691 251.125 396.524 251.061 396.416 250.934C396.309 250.805 396.255 250.666 396.255 250.52C396.255 250.351 396.315 250.209 396.435 250.095C396.554 249.977 396.694 249.919 396.853 249.919C397.058 249.919 397.235 250.008 397.384 250.186C397.533 250.362 397.608 250.604 397.608 250.912C397.608 251.181 397.549 251.434 397.432 251.671C397.314 251.91 397.154 252.114 396.951 252.283C396.751 252.452 396.506 252.554 396.215 252.591ZM396.853 247.987C396.689 247.987 396.548 247.928 396.431 247.811C396.314 247.694 396.255 247.553 396.255 247.39C396.255 247.223 396.314 247.083 396.431 246.968C396.551 246.851 396.691 246.792 396.853 246.792C397.014 246.792 397.153 246.851 397.27 246.968C397.39 247.083 397.45 247.223 397.45 247.39C397.45 247.553 397.391 247.694 397.274 247.811C397.157 247.928 397.016 247.987 396.853 247.987ZM327.496 284V278.311H328.236V280.76H330.34V278.311H331.077V284H330.34V281.328H328.236V284H327.496ZM335.516 283.729C334.971 283.988 334.455 284.117 333.969 284.117C333.6 284.117 333.27 284.026 332.979 283.842C332.688 283.659 332.455 283.398 332.279 283.058C332.106 282.716 332.019 282.351 332.019 281.962C332.019 281.588 332.102 281.229 332.268 280.884C332.434 280.54 332.666 280.272 332.964 280.082C333.263 279.889 333.595 279.792 333.961 279.792C334.448 279.792 334.837 279.966 335.131 280.313C335.426 280.66 335.574 281.195 335.574 281.918V282.065H332.752C332.752 282.348 332.81 282.607 332.928 282.842C333.048 283.076 333.204 283.252 333.397 283.37C333.59 283.487 333.81 283.545 334.057 283.545C334.497 283.545 334.983 283.399 335.516 283.106V283.729ZM332.792 281.555H334.834V281.456C334.834 281.121 334.752 280.855 334.588 280.657C334.424 280.459 334.206 280.36 333.932 280.36C333.656 280.36 333.417 280.462 333.214 280.664C333.013 280.865 332.873 281.162 332.792 281.555ZM337.718 284V278.656H336.494V278.084H338.4V283.432H339.679V284H337.718ZM342.227 284V278.656H341.003V278.084H342.909V283.432H344.188V284H342.227ZM347.322 284.114C346.735 284.114 346.266 283.91 345.914 283.502C345.562 283.091 345.387 282.574 345.387 281.951C345.387 281.328 345.562 280.812 345.914 280.404C346.266 279.996 346.735 279.792 347.322 279.792C347.906 279.792 348.374 279.996 348.726 280.404C349.078 280.812 349.254 281.328 349.254 281.951C349.254 282.574 349.078 283.091 348.726 283.502C348.374 283.91 347.906 284.114 347.322 284.114ZM347.322 283.545C347.686 283.545 347.976 283.404 348.191 283.12C348.406 282.837 348.513 282.447 348.513 281.951C348.513 281.457 348.406 281.069 348.191 280.785C347.976 280.502 347.686 280.36 347.322 280.36C346.955 280.36 346.665 280.502 346.449 280.785C346.234 281.069 346.127 281.457 346.127 281.951C346.127 282.447 346.234 282.837 346.449 283.12C346.665 283.404 346.955 283.545 347.322 283.545ZM356.09 281.669C356.317 281.789 356.483 281.906 356.588 282.021C356.696 282.136 356.775 282.254 356.826 282.376C356.88 282.496 356.907 282.634 356.907 282.79C356.907 282.93 356.882 283.112 356.834 283.337L356.742 283.754C356.693 283.982 356.669 284.15 356.669 284.26C356.669 284.409 356.726 284.535 356.841 284.638C356.958 284.743 357.198 284.795 357.559 284.795H358.127V285.364H357.552C356.882 285.364 356.451 285.256 356.258 285.041C356.065 284.826 355.969 284.583 355.969 284.312C355.969 284.167 355.987 284.012 356.024 283.846L356.09 283.553L356.152 283.234L356.196 283.04C356.213 282.949 356.221 282.861 356.221 282.776C356.221 282.548 356.144 282.354 355.991 282.193C355.839 282.032 355.57 281.951 355.184 281.951H354.858V281.383H355.184C355.565 281.383 355.833 281.303 355.987 281.145C356.143 280.986 356.221 280.788 356.221 280.551C356.221 280.463 356.213 280.377 356.196 280.294L356.152 280.104L356.09 279.785L356.024 279.492C355.987 279.323 355.969 279.167 355.969 279.022C355.969 278.754 356.065 278.512 356.258 278.297C356.451 278.079 356.882 277.97 357.552 277.97H358.127V278.542H357.559C357.2 278.542 356.962 278.595 356.845 278.7C356.727 278.802 356.669 278.93 356.669 279.081C356.669 279.189 356.693 279.356 356.742 279.583L356.834 280.001C356.882 280.226 356.907 280.408 356.907 280.547C356.907 280.704 356.88 280.843 356.826 280.965C356.775 281.085 356.696 281.202 356.588 281.317C356.483 281.432 356.317 281.549 356.09 281.669ZM359.161 284V279.906H359.843V280.8C360.038 280.485 360.274 280.238 360.55 280.06C360.826 279.881 361.103 279.792 361.379 279.792C361.621 279.792 361.841 279.857 362.038 279.986C362.236 280.113 362.374 280.281 362.453 280.489C362.533 280.696 362.574 281.104 362.574 281.713V284H361.892V281.628C361.892 281.235 361.872 280.976 361.833 280.851C361.797 280.724 361.727 280.62 361.624 280.54C361.524 280.459 361.414 280.419 361.294 280.419C361.055 280.419 360.797 280.533 360.521 280.76C360.247 280.987 360.021 281.272 359.843 281.614V284H359.161ZM366.36 283.08C366.152 283.422 365.902 283.68 365.609 283.853C365.318 284.027 365.05 284.114 364.806 284.114C364.464 284.114 364.156 283.966 363.882 283.67C363.611 283.374 363.475 282.926 363.475 282.325C363.475 281.851 363.566 281.428 363.747 281.057C363.927 280.683 364.169 280.388 364.472 280.173C364.775 279.956 365.15 279.847 365.598 279.847C365.727 279.847 365.923 279.861 366.184 279.887C366.223 279.892 366.282 279.898 366.36 279.906H367.045V282.798C367.045 283.291 367.097 283.692 367.199 284H366.488C366.435 283.775 366.392 283.469 366.36 283.08ZM366.36 282.27V280.514C366.118 280.451 365.893 280.419 365.686 280.419C365.265 280.419 364.915 280.581 364.634 280.906C364.355 281.231 364.216 281.674 364.216 282.233C364.216 282.639 364.291 282.946 364.443 283.153C364.597 283.359 364.772 283.461 364.967 283.461C365.18 283.461 365.414 283.354 365.671 283.139C365.927 282.924 366.157 282.634 366.36 282.27ZM367.87 284V279.906H368.468V280.844C368.656 280.446 368.83 280.171 368.992 280.019C369.155 279.868 369.32 279.792 369.487 279.792C369.685 279.792 369.843 279.87 369.963 280.027C370.085 280.181 370.146 280.401 370.146 280.686V280.906C370.227 280.657 370.324 280.456 370.436 280.302C370.551 280.145 370.669 280.022 370.791 279.931C370.914 279.839 371.054 279.792 371.213 279.792C371.389 279.792 371.539 279.867 371.664 280.016C371.788 280.165 371.851 280.462 371.851 280.906V284H371.253V281.203C371.253 280.974 371.246 280.817 371.231 280.734C371.217 280.649 371.187 280.584 371.143 280.54C371.099 280.496 371.052 280.474 371 280.474C370.873 280.474 370.736 280.572 370.59 280.767C370.446 280.96 370.298 281.281 370.146 281.731V284H369.575V281.207C369.575 280.845 369.539 280.633 369.468 280.569C369.397 280.506 369.334 280.474 369.278 280.474C369.153 280.474 369.019 280.583 368.874 280.8C368.733 281.018 368.597 281.296 368.468 281.636V284H367.87ZM376.092 283.729C375.547 283.988 375.031 284.117 374.545 284.117C374.176 284.117 373.846 284.026 373.555 283.842C373.264 283.659 373.031 283.398 372.855 283.058C372.682 282.716 372.595 282.351 372.595 281.962C372.595 281.588 372.678 281.229 372.844 280.884C373.01 280.54 373.242 280.272 373.541 280.082C373.839 279.889 374.171 279.792 374.538 279.792C375.024 279.792 375.414 279.966 375.707 280.313C376.002 280.66 376.15 281.195 376.15 281.918V282.065H373.328C373.328 282.348 373.387 282.607 373.504 282.842C373.624 283.076 373.78 283.252 373.973 283.37C374.166 283.487 374.386 283.545 374.633 283.545C375.073 283.545 375.559 283.399 376.092 283.106V283.729ZM373.368 281.555H375.41V281.456C375.41 281.121 375.328 280.855 375.164 280.657C375.001 280.459 374.782 280.36 374.508 280.36C374.232 280.36 373.993 280.462 373.79 280.664C373.589 280.865 373.449 281.162 373.368 281.555ZM379.127 281.669C378.899 281.549 378.732 281.432 378.624 281.317C378.519 281.202 378.441 281.085 378.39 280.965C378.339 280.843 378.313 280.704 378.313 280.547C378.313 280.408 378.336 280.226 378.383 280.001L378.474 279.583C378.523 279.356 378.547 279.187 378.547 279.077C378.547 278.928 378.489 278.802 378.372 278.7C378.257 278.595 378.018 278.542 377.657 278.542H377.089V277.97H377.664C378.334 277.97 378.765 278.079 378.958 278.297C379.153 278.512 379.251 278.754 379.251 279.022C379.251 279.169 379.232 279.325 379.193 279.492L379.127 279.785L379.064 280.104L379.02 280.294C379.003 280.387 378.995 280.476 378.995 280.562C378.995 280.787 379.07 280.98 379.222 281.141C379.376 281.302 379.646 281.383 380.032 281.383H380.358V281.951H380.032C379.651 281.951 379.382 282.032 379.226 282.193C379.072 282.352 378.995 282.55 378.995 282.787C378.995 282.872 379.003 282.957 379.02 283.04L379.064 283.234L379.127 283.553L379.193 283.846C379.232 284.015 379.251 284.171 379.251 284.315C379.251 284.586 379.153 284.828 378.958 285.041C378.765 285.256 378.334 285.364 377.664 285.364H377.089V284.795H377.657C378.018 284.795 378.257 284.743 378.372 284.638C378.489 284.535 378.547 284.408 378.547 284.257C378.547 284.149 378.523 283.982 378.474 283.754L378.383 283.337C378.336 283.112 378.313 282.93 378.313 282.79C378.313 282.634 378.339 282.496 378.39 282.376C378.441 282.254 378.519 282.136 378.624 282.021C378.732 281.906 378.899 281.789 379.127 281.669ZM383.074 282.38L382.906 278.311H383.815L383.642 282.38H383.074ZM383.389 284.172C383.245 284.172 383.121 284.12 383.016 284.015C382.913 283.912 382.862 283.789 382.862 283.644C382.862 283.5 382.913 283.377 383.016 283.274C383.121 283.172 383.245 283.12 383.389 283.12C383.531 283.12 383.653 283.172 383.756 283.274C383.861 283.374 383.914 283.498 383.914 283.644C383.914 283.791 383.861 283.916 383.756 284.018C383.651 284.121 383.529 284.172 383.389 284.172Z" fill="black"/>
<circle opacity="0.34" cx="306.507" cy="211.507" r="2.0473" fill="white"/>
<circle opacity="0.34" cx="312.649" cy="211.507" r="2.0473" fill="white"/>
<circle opacity="0.34" cx="318.791" cy="211.507" r="2.0473" fill="white"/>
</g>
<path d="M0 334H806V378C806 381.314 803.314 384 800 384H5.99998C2.68627 384 0 381.314 0 378V334Z" fill="#1E3041"/>
<path d="M465.236 351.849V354.834H470.24C471.158 354.834 471.902 355.579 471.902 356.495V366.506C471.902 367.423 471.159 368.167 470.24 368.167H458.565C457.647 368.167 456.902 367.422 456.902 366.506V356.495C456.902 355.577 457.646 354.834 458.565 354.834H463.569V351.847L462.628 352.788C462.306 353.11 461.782 353.11 461.455 352.782C461.129 352.457 461.131 351.927 461.449 351.609L463.817 349.241C463.977 349.081 464.188 349.001 464.399 349L464.405 349.003C464.617 349.003 464.827 349.083 464.985 349.241L467.352 351.609C467.675 351.932 467.675 352.455 467.348 352.782C467.022 353.108 466.492 353.106 466.174 352.788L465.236 351.849ZM463.569 356.5H458.569V366.5H470.236V356.5H465.236V359.835C465.236 360.295 464.866 360.667 464.402 360.667C463.942 360.667 463.569 360.294 463.569 359.835V356.5ZM461.069 354.834V356.5H467.736V354.834H461.069ZM463.569 354.834H465.236V356.5H463.569V354.834Z" fill="white"/>
<path d="M565.377 353H553.427C552.756 353 552.114 353.267 551.641 353.741C551.167 354.215 550.902 354.858 550.902 355.528V362.178C550.901 362.848 551.167 363.492 551.64 363.966C552.114 364.441 552.756 364.708 553.427 364.708H554.302V366.917C554.302 367.967 554.933 368.241 555.703 367.53L558.752 364.707H565.382C566.051 364.706 566.693 364.439 567.166 363.964C567.638 363.49 567.903 362.848 567.901 362.178V355.528C567.902 354.858 567.636 354.215 567.163 353.741C566.689 353.267 566.047 353 565.377 353L565.377 353ZM555.954 359.984C555.557 359.986 555.198 359.748 555.045 359.381C554.892 359.015 554.977 358.592 555.259 358.312C555.541 358.033 555.964 357.951 556.329 358.106C556.695 358.261 556.93 358.622 556.925 359.019C556.92 359.552 556.487 359.982 555.954 359.984V359.984ZM559.391 359.984H559.392C558.997 359.98 558.642 359.739 558.494 359.373C558.346 359.007 558.432 358.587 558.714 358.31C558.995 358.033 559.416 357.952 559.78 358.105C560.144 358.258 560.38 358.616 560.377 359.011C560.37 359.551 559.931 359.984 559.392 359.985L559.391 359.984ZM562.849 359.984H562.85C562.454 359.986 562.097 359.749 561.943 359.385C561.79 359.02 561.871 358.6 562.15 358.318C562.428 358.037 562.848 357.952 563.213 358.101C563.579 358.25 563.82 358.606 563.822 359.001C563.824 359.26 563.723 359.51 563.54 359.695C563.358 359.88 563.109 359.984 562.85 359.985L562.849 359.984Z" fill="white"/>
<path d="M273.442 362.81C275.213 362.81 276.663 361.36 276.663 359.589V354.221C276.663 352.449 275.213 351 273.442 351C271.67 351 270.221 352.449 270.221 354.221V359.589C270.221 361.36 271.67 362.81 273.442 362.81Z" fill="white"/>
<path d="M277.737 357.978V359.589C277.737 361.951 275.804 363.884 273.442 363.884C271.079 363.884 269.147 361.951 269.147 359.589V357.978H267V359.589C267 362.756 269.308 365.44 272.368 365.923V368.178H274.515V365.923C277.575 365.387 279.883 362.755 279.883 359.589V357.978H277.737Z" fill="white"/>
<path d="M372.545 358.183V362.088L377.902 364.946V355.679L372.545 358.183Z" fill="white"/>
<path d="M369.503 355H360.404C359.564 355 358.883 355.681 358.883 356.521V364.115C358.883 364.518 359.043 364.905 359.328 365.19C359.614 365.475 360.001 365.636 360.404 365.636H369.503C369.906 365.636 370.293 365.475 370.578 365.19C370.863 364.905 371.024 364.518 371.024 364.115V356.51C371.018 355.674 370.338 355 369.503 355V355Z" fill="white"/>
<path d="M401.959 95.2186C402.736 95.9953 403.759 96.4121 404.857 96.4121C405.956 96.4121 406.979 95.9764 407.756 95.2186C408.305 94.6692 408.305 93.7599 407.756 93.2105C407.206 92.6611 406.297 92.6611 405.748 93.2105C405.501 93.4568 405.198 93.5704 404.857 93.5704C404.516 93.5704 404.213 93.4378 403.967 93.2105C403.418 92.6611 402.508 92.6611 401.959 93.2105C401.41 93.7599 401.41 94.6503 401.959 95.2186Z" fill="#2D3B48"/>
<path d="M409.593 100.485C409.442 100.371 409.233 100.296 409.006 100.315C409.006 100.315 409.006 100.315 408.987 100.315H408.817C408.627 100.258 408.362 100.03 408.135 99.841C407.813 99.5568 407.472 99.2537 406.998 99.1021C406.392 98.8937 405.672 98.9506 404.838 99.2347C404.024 98.9506 403.285 98.9127 402.679 99.1021C402.508 99.159 402.357 99.2347 402.186 99.3484C402.091 99.4052 402.016 99.4621 401.921 99.5378L401.902 99.5568C401.864 99.5947 401.826 99.6136 401.788 99.6515L401.769 99.6705C401.732 99.6894 401.713 99.7273 401.675 99.7462L401.542 99.8599C401.409 99.9736 401.296 100.068 401.182 100.163L401.05 100.258L401.031 100.277H401.012C400.993 100.296 400.974 100.296 400.936 100.315C400.936 100.315 400.917 100.315 400.917 100.334H400.898H400.879H400.746C400.633 100.334 400.5 100.352 400.386 100.39C400.159 100.466 399.989 100.618 399.913 100.788V100.807C399.913 100.807 399.913 100.807 399.913 100.826C399.837 101.015 399.875 101.224 400.027 101.394C400.121 101.508 400.254 101.603 400.405 101.641C400.424 101.641 400.443 101.66 400.443 101.66L400.462 101.679L400.557 101.754L400.576 101.773L400.595 101.792C400.633 101.83 400.652 101.849 400.69 101.887L400.709 101.906C400.746 101.944 400.784 102.001 400.822 102.057C400.822 102.057 400.822 102.057 400.822 102.076C400.841 102.114 400.879 102.152 400.898 102.171C400.917 102.209 400.936 102.228 400.974 102.266C401.012 102.304 401.031 102.361 401.068 102.398L401.087 102.436C401.106 102.474 401.125 102.493 401.163 102.531L401.201 102.569C401.22 102.607 401.258 102.626 401.277 102.664L401.296 102.683C401.334 102.72 401.372 102.758 401.409 102.796C401.447 102.834 401.466 102.872 401.504 102.891L401.523 102.91C401.561 102.948 401.58 102.967 401.618 103.005L401.637 103.024C401.713 103.099 401.807 103.156 401.883 103.232C401.921 103.27 401.959 103.289 401.997 103.327L402.016 103.346C402.054 103.365 402.091 103.402 402.148 103.421C402.148 103.421 402.148 103.421 402.167 103.421C402.262 103.478 402.357 103.535 402.47 103.592C402.527 103.611 402.565 103.63 402.622 103.668C402.773 103.743 402.944 103.8 403.114 103.838C403.607 103.971 404.156 104.047 404.838 104.047C406.733 104.047 407.851 103.516 408.722 102.247C409.006 101.83 409.196 101.679 409.29 101.622C409.385 101.603 409.461 101.565 409.537 101.508C409.726 101.394 409.859 101.205 409.859 100.997C409.878 100.807 409.783 100.618 409.593 100.485ZM400.311 101.603C400.292 101.603 400.273 101.584 400.273 101.584C400.292 101.584 400.311 101.584 400.311 101.603Z" fill="#2D3B48"/>
<path d="M410.37 87.7167C411.431 86.6559 413.174 86.6559 414.254 87.7167C414.538 88.0009 414.898 88.1335 415.258 88.1335C415.618 88.1335 415.978 88.0009 416.262 87.7167C416.811 87.1673 416.811 86.258 416.262 85.7086C414.083 83.5301 410.541 83.5301 408.362 85.7086C407.813 86.258 407.813 87.1673 408.362 87.7167C408.911 88.2851 409.821 88.2851 410.37 87.7167Z" fill="#2D3B48"/>
<path d="M395.461 87.7167C396.522 86.6559 398.265 86.6559 399.345 87.7167C399.629 88.0009 399.989 88.1335 400.349 88.1335C400.709 88.1335 401.069 88.0009 401.353 87.7167C401.902 87.1673 401.902 86.258 401.353 85.7086C399.174 83.5301 395.632 83.5301 393.453 85.7086C392.904 86.258 392.904 87.1673 393.453 87.7167C394.021 88.2851 394.912 88.2851 395.461 87.7167Z" fill="#2D3B48"/>
<path d="M438.635 84.8371C441.287 76.9185 440.075 69.3408 434.998 62.2746C424.692 47.8959 409.745 44.8838 399.477 48.2559C394.097 50.0366 390.081 53.4845 387.94 57.8985C387.599 57.8795 387.277 57.8606 386.936 57.8606C382.143 57.8606 377.767 59.755 374.641 63.1839C371.667 66.4991 370 71.0079 370 75.8765C370 82.0334 371.781 86.6937 375.285 89.7626C375.285 89.8005 375.285 89.8195 375.285 89.8574C375.285 94.5366 379.093 98.3254 383.754 98.3254H384.644C386.008 101.754 388.243 104.766 391.047 107.097L385.762 110.658C382.598 112.799 380.703 116.341 380.703 120.168V120.32C380.703 125.245 383.791 129.527 388.338 131.137C388.357 131.137 388.357 131.137 388.376 131.156C388.527 131.213 388.698 131.269 388.849 131.307C388.887 131.307 388.906 131.326 388.944 131.326C389.115 131.383 389.304 131.421 389.475 131.478C390.403 131.705 391.35 131.914 392.278 132.084C396.351 132.88 400.5 133.278 404.649 133.278C409.499 133.278 414.348 132.747 419.066 131.648L420.107 131.402C420.297 131.364 420.467 131.307 420.657 131.269C420.676 131.269 420.714 131.25 420.733 131.25C425.639 129.849 429.011 125.397 429.011 120.225C429.011 116.36 427.079 112.78 423.839 110.639L418.8 107.324C421.055 106.263 424.559 103.914 428.159 100.466C431.682 97.094 436.343 91.6571 438.635 84.8371ZM433.141 67.7495C433.255 68.1852 433.349 68.6398 433.444 69.0756C433.558 69.5871 433.217 70.0796 432.705 70.1933C432.649 70.2122 432.573 70.2122 432.516 70.2122C432.08 70.2122 431.682 69.9091 431.588 69.4544C431.493 69.0377 431.398 68.6209 431.303 68.2041C431.171 67.6926 431.474 67.1811 431.985 67.0485C432.497 66.9349 433.027 67.238 433.141 67.7495ZM419.672 54.1665C419.842 53.6739 420.373 53.3897 420.865 53.5602C421.149 53.655 428.007 55.9662 432.042 64.0743C432.27 64.5479 432.08 65.1162 431.607 65.3435C431.474 65.4193 431.322 65.4383 431.19 65.4383C430.849 65.4383 430.508 65.2488 430.337 64.9078C426.662 57.5006 420.335 55.3599 420.278 55.341C419.785 55.1894 419.501 54.659 419.672 54.1665ZM383.09 94.4987C380.817 94.1766 379.074 92.2254 379.074 89.8574C379.074 89.5921 379.093 89.3459 379.131 89.0996C379.15 89.0238 379.15 88.967 379.169 88.8912C379.188 88.8154 379.207 88.7586 379.226 88.6828C379.245 88.626 379.264 88.5502 379.283 88.4934C379.302 88.4176 379.321 88.3608 379.339 88.3039C379.358 88.2471 379.377 88.1713 379.415 88.1145C379.434 88.0577 379.472 88.0008 379.491 87.944C379.529 87.8872 379.548 87.8114 379.586 87.7546C379.605 87.7167 379.624 87.6788 379.662 87.6409C380.059 86.9021 380.647 86.2958 381.348 85.8601C381.442 85.8033 381.556 85.7465 381.67 85.6896H381.689C381.802 85.6328 381.897 85.5949 382.011 85.5381C382.03 85.5381 382.03 85.5381 382.049 85.5191C382.162 85.4812 382.257 85.4434 382.371 85.4055C382.39 85.4055 382.408 85.3865 382.427 85.3865C382.541 85.3486 382.636 85.3297 382.749 85.2918C382.768 85.2918 382.787 85.2918 382.806 85.2729C382.92 85.2539 383.015 85.235 383.128 85.216V90.2741V92.0359V94.4987H383.09ZM386.955 91.8844C386.936 91.6192 386.917 91.354 386.898 91.1077C386.898 91.0887 386.898 91.0887 386.898 91.0698C386.879 90.8046 386.879 90.5583 386.879 90.312V83.3027V78.7561C386.879 78.5856 386.879 78.3961 386.879 78.2256C386.879 78.1688 386.879 78.093 386.879 78.0362C386.879 77.9225 386.879 77.8278 386.898 77.7141C386.898 77.6194 386.917 77.5436 386.917 77.4489C386.917 77.3731 386.936 77.2973 386.936 77.2216C387.239 73.679 388.565 70.4206 390.611 67.7495C396.863 67.8821 402.622 69.7197 407.737 73.2054C413.344 77.0132 418.421 82.9238 422.816 90.7667C422.816 90.8235 422.816 90.8993 422.816 90.9561C422.816 91.0508 422.816 91.1456 422.798 91.2213C422.798 91.3161 422.779 91.4297 422.779 91.5245C422.779 91.5813 422.779 91.6381 422.76 91.676C422.741 91.7897 422.741 91.9223 422.722 92.0359C422.722 92.0549 422.722 92.0928 422.722 92.1117C422.002 99.1779 417.171 105.032 410.673 107.267C410.616 107.286 410.579 107.305 410.522 107.324C410.427 107.362 410.313 107.4 410.219 107.419C410.086 107.457 409.953 107.494 409.821 107.532C409.745 107.551 409.669 107.57 409.593 107.589C409.461 107.627 409.347 107.665 409.215 107.684C409.158 107.703 409.101 107.722 409.044 107.722C408.892 107.76 408.741 107.798 408.589 107.816C408.57 107.816 408.533 107.835 408.514 107.835C408.324 107.873 408.135 107.911 407.945 107.949C407.926 107.949 407.888 107.949 407.869 107.968C407.699 107.987 407.547 108.025 407.377 108.044C407.339 108.044 407.301 108.063 407.263 108.063C406.884 108.12 406.506 108.157 406.127 108.176C406.089 108.176 406.032 108.176 405.994 108.176C405.842 108.176 405.691 108.195 405.558 108.195C405.501 108.195 405.464 108.195 405.407 108.195C405.217 108.195 405.028 108.214 404.838 108.214C404.649 108.214 404.46 108.214 404.27 108.195C404.213 108.195 404.175 108.195 404.119 108.195C403.967 108.195 403.815 108.176 403.664 108.176C403.626 108.176 403.588 108.176 403.531 108.176C403.342 108.157 403.152 108.139 402.963 108.12C402.944 108.12 402.925 108.12 402.925 108.12C402.755 108.101 402.565 108.082 402.395 108.063C402.357 108.063 402.319 108.044 402.262 108.044C402.092 108.025 401.921 107.987 401.751 107.968C401.732 107.968 401.713 107.968 401.694 107.968C401.504 107.93 401.315 107.892 401.144 107.854C401.106 107.854 401.05 107.835 401.012 107.816C400.879 107.779 400.728 107.76 400.595 107.722C400.538 107.703 400.481 107.703 400.424 107.684C400.273 107.646 400.102 107.608 399.951 107.551C399.875 107.532 399.799 107.513 399.723 107.475C399.629 107.457 399.534 107.419 399.439 107.381C399.345 107.343 399.25 107.324 399.155 107.286C399.098 107.267 399.041 107.248 398.985 107.229C392.43 105.013 387.58 99.0453 386.955 91.8844ZM408.173 123.768C406.165 125.056 403.569 125.056 401.542 123.768C399.818 122.65 397.924 121.873 395.954 121.418V110.147C396.56 110.412 397.166 110.658 397.772 110.866C397.829 110.885 397.905 110.904 397.962 110.923C398.075 110.961 398.189 110.999 398.303 111.037C398.397 111.075 398.492 111.094 398.606 111.132C398.7 111.151 398.776 111.189 398.871 111.207C399.06 111.264 399.25 111.321 399.439 111.359C399.477 111.359 399.496 111.378 399.534 111.378C399.705 111.416 399.875 111.454 400.046 111.511C400.102 111.53 400.159 111.53 400.197 111.548C400.349 111.586 400.519 111.624 400.671 111.643C400.728 111.662 400.765 111.662 400.822 111.681C401.012 111.719 401.182 111.738 401.372 111.776C401.391 111.776 401.428 111.776 401.447 111.795C401.864 111.871 402.3 111.908 402.736 111.965C402.792 111.965 402.83 111.965 402.887 111.984C403.039 112.003 403.209 112.003 403.361 112.022C403.418 112.022 403.493 112.022 403.55 112.041C403.702 112.041 403.853 112.06 404.005 112.06C404.062 112.06 404.119 112.06 404.194 112.06C404.403 112.06 404.611 112.079 404.819 112.079C405.028 112.079 405.236 112.079 405.445 112.06C405.501 112.06 405.558 112.06 405.615 112.06C405.767 112.06 405.918 112.041 406.07 112.041C406.127 112.041 406.202 112.041 406.259 112.022C406.411 112.003 406.562 112.003 406.733 111.984C406.79 111.984 406.847 111.984 406.884 111.965C407.074 111.946 407.263 111.927 407.453 111.908C407.472 111.908 407.491 111.908 407.491 111.908C407.926 111.852 408.343 111.795 408.76 111.719C408.798 111.719 408.836 111.7 408.874 111.7C409.044 111.662 409.215 111.643 409.366 111.605C409.423 111.586 409.461 111.586 409.518 111.567C409.669 111.53 409.821 111.492 409.991 111.454C410.048 111.435 410.086 111.435 410.143 111.416C410.332 111.378 410.522 111.321 410.692 111.264C410.768 111.245 410.863 111.207 410.938 111.189C411.052 111.151 411.166 111.113 411.279 111.094C411.393 111.056 411.507 111.018 411.639 110.98C411.696 110.961 411.753 110.942 411.81 110.923C411.942 110.866 412.094 110.829 412.227 110.772C412.246 110.772 412.265 110.753 412.283 110.753C412.568 110.658 412.833 110.544 413.117 110.431V121.589C411.431 122.025 409.726 122.763 408.173 123.768ZM384.473 120.168C384.473 117.611 385.743 115.224 387.864 113.803L392.165 110.904V120.964C392.051 120.964 391.956 120.964 391.843 120.964C389.399 120.983 386.993 121.513 384.776 122.498C384.568 121.816 384.473 121.077 384.473 120.32V120.168ZM421.793 113.822C423.953 115.243 425.26 117.649 425.26 120.244C425.26 121.021 425.147 121.778 424.919 122.498C422.703 121.513 420.316 120.983 417.872 120.964C417.569 120.964 417.285 120.964 416.982 120.983V110.658L421.793 113.822Z" fill="#2D3B48"/>
<path d="M129.989 90.0978C131.179 90.0978 132.143 89.1336 132.143 87.9441C132.143 86.7546 131.179 85.7904 129.989 85.7904C128.8 85.7904 127.836 86.7546 127.836 87.9441C127.836 89.1336 128.8 90.0978 129.989 90.0978Z" fill="#2D3B48"/>
<path d="M145.029 90.0978C146.218 90.0978 147.183 89.1336 147.183 87.9441C147.183 86.7546 146.218 85.7904 145.029 85.7904C143.839 85.7904 142.875 86.7546 142.875 87.9441C142.875 89.1336 143.839 90.0978 145.029 90.0978Z" fill="#2D3B48"/>
<path d="M136.049 101.378H138.969C139.48 101.378 139.882 100.976 139.882 100.465C139.882 99.9541 139.48 99.5526 138.969 99.5526H136.049C135.538 99.5526 135.136 99.9541 135.136 100.465C135.136 100.976 135.538 101.378 136.049 101.378Z" fill="#2D3B48"/>
<path d="M158.48 98.3113V96.7599C162.678 96.4313 166 92.9088 166 88.6196C166 84.3305 162.678 80.8079 158.462 80.4794C158.371 72.2478 153.479 65.1479 146.471 61.8626L146.58 61.0413C147.018 57.829 143.897 55 139.9 55H135.1C131.085 55 127.963 57.8108 128.42 61.0413L128.548 61.9356C121.575 65.2574 116.702 72.3026 116.538 80.4794C112.322 80.8079 109 84.3305 109 88.6196C109 92.9088 112.322 96.4313 116.52 96.7599V98.3295C116.52 101.962 118.126 105.393 120.918 107.729L125.28 111.361L119.075 115.541C116.027 117.603 114.202 121.016 114.202 124.703V124.849C114.202 129.978 117.688 134.395 122.652 135.599C127.434 136.749 132.362 137.333 137.29 137.333C141.963 137.333 146.635 136.804 151.18 135.764L152.183 135.526C157.239 134.377 160.762 129.941 160.762 124.758C160.762 121.035 158.9 117.585 155.779 115.523L149.537 111.416L154.009 107.711C156.874 105.393 158.48 101.962 158.48 98.3113ZM158.48 84.1662C160.671 84.4765 162.35 86.3564 162.35 88.6379C162.35 90.9193 160.652 92.7992 158.48 93.1095V84.1662ZM116.538 93.0913C114.348 92.781 112.669 90.9011 112.669 88.6196C112.669 86.3381 114.366 84.4582 116.538 84.1479V93.0913ZM139.353 57.0259C141.342 57.0807 145.102 58.048 145.102 61.4063C145.102 61.9174 144.7 62.3189 144.189 62.3189C143.678 62.3189 143.277 61.9174 143.277 61.4063C143.277 58.9789 139.334 58.8511 139.298 58.8511C138.787 58.8329 138.403 58.4131 138.403 57.9203C138.44 57.4092 138.86 57.0077 139.353 57.0259ZM142.437 118.662C141.451 120.524 139.608 121.637 137.491 121.637C135.392 121.637 133.53 120.524 132.545 118.662L130.409 114.628C131.431 114.957 132.49 115.121 133.567 115.121H141.378C142.474 115.121 143.532 114.957 144.554 114.628L142.437 118.662ZM136.359 98.2017H138.659C140.575 98.2017 142.09 99.5524 141.871 101.086L141.451 104.079C141.232 105.703 139.535 106.908 137.509 106.908C135.483 106.908 133.786 105.685 133.567 104.079L133.147 101.086C132.928 99.5524 134.443 98.2017 136.359 98.2017ZM150.833 96.9971L150.76 97.1066C149.975 98.2747 148.442 98.658 147.201 98.001C146.945 97.8732 146.69 97.7089 146.452 97.5447C144.938 96.4678 143.879 94.7887 142.036 94.1864C141.159 93.8943 140.247 93.9491 139.407 94.2594C138.166 94.7339 136.797 94.7339 135.556 94.2594C134.735 93.9491 133.804 93.9126 132.928 94.1864C131.103 94.7887 130.026 96.4678 128.511 97.5447C128.493 97.5629 128.475 97.5812 128.438 97.5994C127.197 98.4573 125.518 98.1287 124.66 96.8876C123.583 95.3362 121.959 94.3141 120.134 93.9856V82.268V80.9356C120.134 74.438 123.729 68.7618 129.022 65.7867L129.241 67.3199C129.716 70.6964 133.256 73.2699 137.454 73.2699C141.671 73.2699 145.211 70.7147 145.668 67.3199L145.887 65.6955C151.18 68.6158 154.757 74.2555 154.757 80.7166V82.2863V94.1316C153.224 94.5697 151.782 95.5735 150.833 96.9971Z" fill="#2D3B48"/>
<path d="M0 4.0946C0 1.83321 1.83321 0 4.09459 0H801.905C804.167 0 806 1.83321 806 4.09459V17H0V4.0946Z" fill="#CCD0D3"/>
<circle opacity="0.34" cx="9.5" cy="8.5" r="3.5" fill="white"/>
<circle opacity="0.34" cx="20.5" cy="8.5" r="3.5" fill="white"/>
<circle opacity="0.34" cx="30.5" cy="8.5" r="3.5" fill="white"/>
<path opacity="0.3" d="M445 170C445 163.373 450.373 158 457 158H551C558.18 158 564 163.82 564 171V265C564 271.627 558.627 277 552 277H457C450.373 277 445 271.627 445 265V170Z" fill="#23435F"/>
<path d="M440 165C440 158.373 445.373 153 452 153H546C553.18 153 559 158.82 559 166V260C559 266.627 553.627 272 547 272H452C445.373 272 440 266.627 440 260V165Z" fill="white"/>
<path fill-rule="evenodd" clip-rule="evenodd" d="M495.936 179.252C505.585 173.078 518.928 175.957 525.685 185.668C527.288 187.922 528.427 190.474 529.035 193.176C529.643 195.878 529.707 198.674 529.224 201.401C528.756 204.006 527.767 206.487 526.317 208.697C528.433 212.749 529.143 217.394 528.335 221.897C527.857 224.57 526.829 227.114 525.317 229.365C523.805 231.617 521.841 233.527 519.552 234.973L502.607 245.818C492.961 251.991 479.616 249.114 472.859 239.402C471.256 237.148 470.117 234.596 469.509 231.894C468.901 229.192 468.837 226.396 469.32 223.669C469.788 221.064 470.777 218.582 472.228 216.373C470.111 212.321 469.401 207.676 470.209 203.173C470.687 200.5 471.714 197.956 473.227 195.705C474.739 193.453 476.702 191.543 478.991 190.097L495.936 179.252ZM486.518 240.536C489.041 241.497 491.791 241.64 494.396 240.944C495.586 240.617 496.72 240.105 497.759 239.425L514.311 228.587C515.655 227.717 516.809 226.569 517.697 225.216C518.585 223.862 519.189 222.334 519.47 220.727C519.754 219.088 519.716 217.407 519.359 215.783C519.002 214.159 518.333 212.624 517.391 211.27C515.857 208.997 513.681 207.263 511.157 206.302C508.634 205.341 505.884 205.198 503.279 205.894C502.09 206.221 500.956 206.733 499.918 207.412L493.602 211.548C493.288 211.754 492.945 211.909 492.586 212.008C491.801 212.217 490.972 212.173 490.212 211.883C489.452 211.593 488.797 211.071 488.335 210.386C488.052 209.978 487.85 209.515 487.743 209.025C487.635 208.536 487.624 208.029 487.709 207.535C487.794 207.051 487.976 206.591 488.244 206.183C488.511 205.775 488.859 205.429 489.264 205.168L505.817 194.328C506.131 194.122 506.474 193.967 506.833 193.869C507.618 193.659 508.446 193.703 509.206 193.992C509.966 194.282 510.621 194.805 511.082 195.489C511.588 196.225 511.825 197.121 511.75 198.018L511.693 198.649L512.308 198.841C514.636 199.562 516.826 200.687 518.784 202.167L519.632 202.806L519.943 201.829C520.11 201.309 520.242 200.779 520.339 200.241C520.622 198.601 520.585 196.92 520.228 195.296C519.87 193.672 519.201 192.138 518.259 190.783C516.725 188.511 514.55 186.777 512.026 185.816C509.502 184.855 506.753 184.712 504.148 185.408C502.958 185.735 501.823 186.247 500.784 186.927L484.233 197.767C482.888 198.636 481.734 199.784 480.846 201.137C479.958 202.49 479.354 204.019 479.073 205.626C478.79 207.265 478.827 208.946 479.184 210.57C479.542 212.194 480.211 213.728 481.153 215.083C482.687 217.355 484.862 219.089 487.386 220.051C489.91 221.012 492.66 221.154 495.265 220.458C496.454 220.131 497.587 219.62 498.626 218.941L504.942 214.804C505.256 214.598 505.599 214.444 505.958 214.345C506.743 214.136 507.571 214.179 508.331 214.469C509.091 214.759 509.746 215.282 510.208 215.966C510.492 216.375 510.693 216.837 510.801 217.327C510.908 217.816 510.92 218.323 510.835 218.817C510.75 219.301 510.568 219.761 510.3 220.169C510.032 220.577 509.685 220.923 509.28 221.185L492.727 232.024C492.413 232.229 492.07 232.384 491.71 232.483C490.926 232.692 490.098 232.649 489.338 232.359C488.578 232.069 487.923 231.547 487.462 230.863C486.955 230.127 486.719 229.231 486.794 228.334L486.851 227.703L486.235 227.511C483.909 226.789 481.719 225.665 479.76 224.187L478.912 223.547L478.601 224.523C478.433 225.043 478.301 225.573 478.205 226.112C477.921 227.751 477.959 229.432 478.316 231.056C478.673 232.68 479.343 234.214 480.284 235.569C481.818 237.841 483.994 239.575 486.518 240.536Z" fill="#FF3E00"/>
<circle cx="216.441" cy="222.215" r="41" transform="rotate(165 216.441 222.215)" fill="#CBDFF1"/>
<circle cx="298.007" cy="82.007" r="41" transform="rotate(30 298.007 82.007)" fill="#CBDFF1"/>
<path d="M161.247 257.709L188.154 242.217L182.978 222.899L161.247 257.709Z" fill="#CBDFF1"/>
<path d="M362.134 95.9368L332.153 87.865L322.153 105.185L362.134 95.9368Z" fill="#CBDFF1"/>
<circle cx="278.5" cy="84.5" r="5.5" fill="white"/>
<circle cx="295.5" cy="84.5" r="5.5" fill="white"/>
<circle cx="311.5" cy="84.5" r="5.5" fill="white"/>
<path d="M214.758 229.252L213.293 214.353V203.039H219.202V214.353L217.788 229.252H214.758ZM216.273 239.606C215.094 239.606 214.118 239.219 213.344 238.444C212.569 237.67 212.182 236.727 212.182 235.616C212.182 234.505 212.569 233.562 213.344 232.788C214.118 231.98 215.094 231.576 216.273 231.576C217.418 231.576 218.394 231.98 219.202 232.788C220.01 233.562 220.415 234.505 220.415 235.616C220.415 236.694 220.01 237.636 219.202 238.444C218.394 239.219 217.418 239.606 216.273 239.606Z" fill="white"/>
<path d="M667.945 91.0983C669.076 91.0983 669.993 90.1813 669.993 89.05C669.993 87.9188 669.076 87.0017 667.945 87.0017C666.814 87.0017 665.897 87.9188 665.897 89.05C665.897 90.1813 666.814 91.0983 667.945 91.0983Z" fill="#2D3B48"/>
<path d="M682.249 91.0983C683.38 91.0983 684.297 90.1813 684.297 89.05C684.297 87.9188 683.38 87.0017 682.249 87.0017C681.117 87.0017 680.2 87.9188 680.2 89.05C680.2 90.1813 681.117 91.0983 682.249 91.0983Z" fill="#2D3B48"/>
<path d="M675.097 97.2086C676.104 97.2086 677.041 96.8094 677.753 96.115C678.256 95.6116 678.256 94.7784 677.753 94.275C677.249 93.7716 676.416 93.7716 675.913 94.275C675.687 94.5007 675.409 94.6048 675.097 94.6048C674.784 94.6048 674.507 94.4833 674.281 94.275C673.778 93.7716 672.944 93.7716 672.441 94.275C671.938 94.7784 671.938 95.6116 672.441 96.115C673.153 96.8094 674.09 97.2086 675.097 97.2086Z" fill="#2D3B48"/>
<path d="M693.636 97.8334H694.452C698.739 97.8334 702.211 94.3444 702.211 90.0742C702.211 85.9949 699.052 82.6447 695.059 82.3322V80.9088V79.6937C695.059 71.5873 690.164 64.5918 683.168 61.5193C683.811 60.5472 684.193 59.3842 684.193 58.1344V57.1797C684.193 53.7774 681.415 51 678.013 51H672.198C668.796 51 666.018 53.7774 666.018 57.1797V58.1344C666.018 59.4016 666.4 60.5993 667.077 61.5714C660.064 64.6959 655.152 71.7261 655.152 79.8847V81.0998V82.3322C651.159 82.6447 648 85.9949 648 90.0742C648 94.3617 651.489 97.8334 655.759 97.8334H656.575C657.825 100.975 659.873 103.735 662.442 105.87L657.599 109.134C654.7 111.095 652.965 114.341 652.965 117.848V117.987C652.965 122.864 656.28 127.065 661.002 128.211C665.55 129.305 670.236 129.86 674.923 129.86C679.367 129.86 683.811 129.357 688.133 128.367L689.088 128.142C693.896 127.048 697.246 122.83 697.246 117.9C697.246 114.359 695.476 111.078 692.507 109.117L687.664 105.923C690.285 103.805 692.351 101.027 693.636 97.8334ZM695.042 90.4734V85.8387C697.125 86.1338 698.722 87.9217 698.722 90.0915C698.722 92.2613 697.107 94.0493 695.042 94.3444V90.4734ZM655.152 90.4734V94.327C653.069 94.0319 651.472 92.244 651.472 90.0742C651.472 87.9043 653.086 86.1164 655.152 85.8213V90.4734ZM683.273 80.8047C683.394 80.336 683.863 80.0583 684.331 80.1798C684.835 80.3013 685.338 80.4228 685.842 80.4922C686.31 80.5617 686.64 81.013 686.553 81.4817C686.484 81.9156 686.119 82.2107 685.703 82.2107C685.651 82.2107 685.616 82.2107 685.564 82.1934C685.008 82.1066 684.453 81.9851 683.898 81.8462C683.446 81.742 683.168 81.2734 683.273 80.8047ZM667.806 68.7231C668.205 68.4454 668.743 68.5495 669.021 68.9314C669.091 69.0182 673.795 75.6145 680.773 78.8779C681.207 79.0862 681.398 79.5896 681.19 80.0235C681.033 80.336 680.721 80.5269 680.408 80.5269C680.287 80.5269 680.165 80.4922 680.044 80.4401C672.632 76.9684 667.823 70.1986 667.615 69.9208C667.32 69.539 667.407 69.0008 667.806 68.7231ZM680.443 106.044C680.391 106.061 680.356 106.079 680.304 106.096C680.218 106.131 680.113 106.166 680.027 106.183C679.905 106.218 679.784 106.252 679.662 106.287C679.593 106.304 679.523 106.322 679.454 106.339C679.332 106.374 679.228 106.409 679.107 106.426C679.054 106.443 679.002 106.461 678.95 106.461C678.811 106.495 678.673 106.53 678.534 106.547C678.516 106.547 678.482 106.565 678.464 106.565C678.291 106.6 678.117 106.634 677.944 106.669C677.926 106.669 677.891 106.669 677.874 106.686C677.718 106.704 677.579 106.738 677.423 106.756C677.388 106.756 677.353 106.773 677.319 106.773C676.971 106.825 676.624 106.86 676.277 106.877C676.242 106.877 676.19 106.877 676.156 106.877C676.017 106.877 675.878 106.895 675.756 106.895C675.704 106.895 675.67 106.895 675.617 106.895C675.444 106.895 675.27 106.912 675.097 106.912C674.923 106.912 674.75 106.912 674.576 106.895C674.524 106.895 674.489 106.895 674.437 106.895C674.298 106.895 674.159 106.877 674.02 106.877C673.986 106.877 673.951 106.877 673.899 106.877C673.725 106.86 673.552 106.843 673.378 106.825C673.361 106.825 673.344 106.825 673.344 106.825C673.187 106.808 673.014 106.79 672.857 106.773C672.823 106.773 672.788 106.756 672.736 106.756C672.58 106.738 672.424 106.704 672.267 106.686C672.25 106.686 672.233 106.686 672.215 106.686C672.042 106.652 671.868 106.617 671.712 106.582C671.677 106.582 671.625 106.565 671.59 106.547C671.469 106.513 671.33 106.495 671.208 106.461C671.156 106.443 671.104 106.443 671.052 106.426C670.913 106.391 670.757 106.356 670.618 106.304C670.549 106.287 670.479 106.27 670.41 106.235C670.323 106.218 670.236 106.183 670.15 106.148C670.063 106.113 669.976 106.096 669.889 106.061C669.837 106.044 669.785 106.027 669.733 106.009C663.276 103.77 658.641 97.6425 658.641 90.4387V84.4673C661.522 83.5647 664.109 81.8288 666.053 79.4681C666.747 78.6175 667.355 77.6975 667.858 76.708C668.934 77.9231 670.132 79.0341 671.434 80.0235C675.861 83.3911 681.155 85.1617 686.727 85.1617H688.098C689.279 85.1617 690.442 85.0749 691.605 84.9187V90.4387C691.57 97.6772 686.901 103.822 680.443 106.044Z" fill="#2D3B48"/>
<path d="M679.436 99.8123C679.297 99.7082 679.106 99.6387 678.898 99.6561C678.898 99.6561 678.898 99.6561 678.881 99.6561H678.724C678.551 99.604 678.308 99.3957 678.1 99.2221C677.804 98.9617 677.492 98.684 677.058 98.5451C676.503 98.3542 675.843 98.4063 675.079 98.6666C674.333 98.4063 673.656 98.3716 673.1 98.5451C672.944 98.5972 672.805 98.6666 672.649 98.7708C672.562 98.8229 672.493 98.875 672.406 98.9444L672.389 98.9617C672.354 98.9965 672.319 99.0138 672.284 99.0485L672.267 99.0659C672.232 99.0833 672.215 99.118 672.18 99.1353L672.059 99.2395C671.937 99.3436 671.833 99.4304 671.729 99.5172L671.607 99.604L671.59 99.6214H671.573C671.555 99.6387 671.538 99.6387 671.503 99.6561C671.503 99.6561 671.486 99.6561 671.486 99.6734H671.469H671.451H671.33C671.226 99.6734 671.104 99.6908 671 99.7255C670.792 99.795 670.635 99.9338 670.566 100.09V100.107C670.566 100.107 670.566 100.107 670.566 100.125C670.497 100.298 670.531 100.489 670.67 100.646C670.757 100.75 670.878 100.836 671.017 100.871C671.035 100.871 671.052 100.889 671.052 100.889L671.069 100.906L671.156 100.975L671.174 100.993L671.191 101.01C671.226 101.045 671.243 101.062 671.278 101.097L671.295 101.114C671.33 101.149 671.364 101.201 671.399 101.253C671.399 101.253 671.399 101.253 671.399 101.27C671.417 101.305 671.451 101.34 671.469 101.357C671.486 101.392 671.503 101.409 671.538 101.444C671.573 101.479 671.59 101.531 671.625 101.566L671.642 101.6C671.66 101.635 671.677 101.652 671.712 101.687L671.746 101.722C671.764 101.756 671.798 101.774 671.816 101.809L671.833 101.826C671.868 101.861 671.903 101.895 671.937 101.93C671.972 101.965 671.989 101.999 672.024 102.017L672.041 102.034C672.076 102.069 672.094 102.086 672.128 102.121L672.146 102.138C672.215 102.208 672.302 102.26 672.371 102.329C672.406 102.364 672.441 102.381 672.475 102.416L672.493 102.433C672.527 102.451 672.562 102.486 672.614 102.503C672.614 102.503 672.614 102.503 672.632 102.503C672.718 102.555 672.805 102.607 672.909 102.659C672.961 102.676 672.996 102.694 673.048 102.729C673.187 102.798 673.343 102.85 673.5 102.885C673.951 103.006 674.454 103.076 675.079 103.076C676.815 103.076 677.839 102.59 678.638 101.427C678.898 101.045 679.072 100.906 679.158 100.854C679.245 100.836 679.315 100.802 679.384 100.75C679.558 100.646 679.679 100.472 679.679 100.281C679.697 100.107 679.61 99.9338 679.436 99.8123ZM670.93 100.836C670.913 100.836 670.896 100.819 670.896 100.819C670.913 100.819 670.93 100.819 670.93 100.836Z" fill="#2D3B48"/>
<path d="M664.294 244.426C668.328 244.129 671.524 240.741 671.524 236.637C671.524 232.533 668.345 229.162 664.329 228.848V224.691C664.329 214.946 656.4 207 646.637 207H642.079C632.212 207 624.195 215.016 624.195 224.884V228.848C620.179 229.162 617 232.533 617 236.637C617 240.741 620.196 244.129 624.23 244.426C624.492 250.172 627.479 255.202 631.915 258.276L626.658 261.821C623.741 263.794 621.995 267.06 621.995 270.588V270.728C621.995 275.635 625.331 279.862 630.081 281.014C634.657 282.114 639.372 282.673 644.087 282.673C648.558 282.673 653.029 282.167 657.378 281.171L658.338 280.944C663.176 279.844 666.547 275.6 666.547 270.64C666.547 267.078 664.765 263.777 661.779 261.803L656.505 258.328C661.01 255.272 664.032 250.207 664.294 244.426ZM668.031 236.637C668.031 238.82 666.407 240.619 664.329 240.916V232.358C666.407 232.655 668.031 234.454 668.031 236.637ZM620.458 236.637C620.458 234.454 622.082 232.655 624.16 232.358V240.916C622.082 240.619 620.458 238.803 620.458 236.637ZM648.453 261.402C649.257 261.402 650.06 261.332 650.846 261.227L648.96 264.79C648.017 266.571 646.253 267.636 644.227 267.636C642.219 267.636 640.437 266.571 639.494 264.79L637.608 261.21C638.394 261.332 639.215 261.402 640.018 261.402H641.957H646.515H648.453ZM651.981 256.826C650.305 257.525 648.453 257.909 646.515 257.909H641.957C640.018 257.909 638.184 257.525 636.49 256.826V252.041C636.49 250.469 637.783 249.177 639.354 249.177H649.117C650.689 249.177 651.981 250.469 651.981 252.041V256.826V256.826ZM655.474 254.748V252.041C655.474 248.53 652.627 245.684 649.117 245.684H639.354C635.844 245.684 632.997 248.53 632.997 252.041V254.748C629.749 252.128 627.653 248.111 627.653 243.623V242.942C627.671 242.837 627.671 242.732 627.671 242.627C627.653 242.365 627.653 242.138 627.653 241.911V230.56V224.884C627.653 216.955 634.115 210.493 642.044 210.493H646.602C654.426 210.493 660.801 216.867 660.801 224.691V230.577V241.929C660.801 242.138 660.801 242.383 660.783 242.645C660.783 242.75 660.783 242.854 660.801 242.959V243.64C660.818 248.111 658.74 252.128 655.474 254.748Z" fill="#2D3B48"/>
<path d="M637.049 237.458C638.187 237.458 639.11 236.535 639.11 235.397C639.11 234.259 638.187 233.336 637.049 233.336C635.911 233.336 634.988 234.259 634.988 235.397C634.988 236.535 635.911 237.458 637.049 237.458Z" fill="#2D3B48"/>
<path d="M651.44 237.458C652.578 237.458 653.501 236.535 653.501 235.397C653.501 234.259 652.578 233.336 651.44 233.336C650.302 233.336 649.379 234.259 649.379 235.397C649.379 236.535 650.302 237.458 651.44 237.458Z" fill="#2D3B48"/>
<path d="M646.969 251.691C645.31 252.006 643.511 252.006 641.468 251.691C640.752 251.587 640.088 252.076 639.966 252.792C639.861 253.508 640.35 254.171 641.066 254.294C642.219 254.468 643.319 254.556 644.367 254.556C645.432 254.556 646.445 254.468 647.44 254.276C648.156 254.136 648.628 253.455 648.488 252.739C648.366 252.023 647.685 251.552 646.969 251.691Z" fill="#2D3B48"/>
<path d="M645.292 241.352C645.048 241.352 644.856 241.16 644.856 240.916V234.995C644.856 234.279 644.262 233.686 643.546 233.686C642.83 233.686 642.236 234.279 642.236 234.995V240.916C642.236 242.592 643.616 243.972 645.292 243.972C646.008 243.972 646.602 243.378 646.602 242.662C646.602 241.946 646.008 241.352 645.292 241.352Z" fill="#2D3B48"/>
<path d="M641.345 228.307L636.036 226.787C634.15 226.246 632.124 226.56 630.5 227.678L630.325 227.8C629.731 228.202 629.574 229.023 629.976 229.616C630.378 230.21 631.198 230.367 631.792 229.966L631.967 229.844C632.945 229.18 634.15 228.988 635.285 229.302L640.594 230.822C640.717 230.856 640.839 230.874 640.961 230.874C641.537 230.874 642.061 230.507 642.219 229.931C642.446 229.232 642.044 228.499 641.345 228.307Z" fill="#2D3B48"/>
<path d="M658.146 227.783L657.972 227.66C656.348 226.543 654.339 226.228 652.436 226.77L647.126 228.289C646.428 228.481 646.026 229.215 646.236 229.913C646.393 230.49 646.917 230.856 647.493 230.856C647.615 230.856 647.738 230.839 647.86 230.804L653.169 229.285C654.304 228.953 655.509 229.145 656.487 229.826L656.662 229.948C657.256 230.35 658.077 230.21 658.478 229.599C658.897 229.005 658.74 228.184 658.146 227.783Z" fill="#2D3B48"/>
<path d="M719.038 251H715.962C715.423 251 715 251.44 715 252C715 252.56 715.423 253 715.962 253H719.038C719.577 253 720 252.56 720 252C720 251.44 719.577 251 719.038 251Z" fill="#2D3B48"/>
<path d="M735.202 264.019L734.249 263.386C732.344 262.139 729.98 261.752 727.775 262.314C725.57 262.877 723.683 264.353 722.624 266.356L722.272 267.024C721.319 268.816 719.537 269.888 717.491 269.888C715.463 269.888 713.663 268.816 712.711 267.024L712.323 266.303C711.247 264.282 709.359 262.806 707.136 262.244C704.914 261.682 702.55 262.103 700.645 263.386L699.71 264.019C696.764 266.004 695 269.29 695 272.84V272.981C695 277.918 698.369 282.171 703.167 283.331C707.789 284.438 712.552 285 717.315 285C721.831 285 726.346 284.49 730.739 283.489L731.709 283.26C736.595 282.153 740 277.883 740 272.893C740.018 269.308 738.218 265.987 735.202 264.019Z" fill="#2D3B48"/>
<path d="M739.234 230.171L740.856 213.711C741.173 211.261 740.415 208.794 738.794 206.943C737.154 205.075 734.792 204 732.324 204H702.745C700.259 204 697.897 205.075 696.275 206.943C694.654 208.794 693.896 211.279 694.213 213.711L695.835 230.171C692.486 231.07 690 234.136 690 237.785C690 241.979 693.296 245.416 697.421 245.645C697.457 245.874 697.474 246.085 697.509 246.314C697.509 246.367 697.527 246.42 697.527 246.473C697.562 246.702 697.615 246.931 697.65 247.16C697.65 247.178 697.65 247.178 697.65 247.196C697.703 247.425 697.756 247.654 697.809 247.883C697.827 247.936 697.827 247.989 697.844 248.042C697.897 248.271 697.968 248.5 698.021 248.711C698.038 248.746 698.038 248.782 698.056 248.817C698.109 249.028 698.179 249.222 698.25 249.434C698.267 249.469 698.267 249.522 698.285 249.557C698.356 249.769 698.426 249.998 698.514 250.209C698.532 250.262 698.549 250.297 698.567 250.35C698.638 250.562 698.726 250.756 698.814 250.967C698.814 250.985 698.831 251.002 698.831 251.02C698.92 251.231 699.025 251.443 699.114 251.654C699.131 251.707 699.149 251.742 699.184 251.795C699.29 252.007 699.378 252.201 699.484 252.412C699.501 252.43 699.519 252.465 699.519 252.483C699.625 252.677 699.713 252.853 699.819 253.047C699.836 253.082 699.854 253.117 699.889 253.152C699.995 253.346 700.118 253.54 700.242 253.734C700.259 253.769 700.295 253.804 700.312 253.857C700.418 254.034 700.541 254.227 700.665 254.404C700.682 254.421 700.682 254.439 700.7 254.457C700.823 254.65 700.964 254.827 701.088 255.02C701.123 255.056 701.141 255.109 701.176 255.144C701.317 255.32 701.44 255.514 701.599 255.69C701.617 255.708 701.634 255.725 701.634 255.743C701.775 255.902 701.899 256.078 702.04 256.237C702.075 256.272 702.093 256.307 702.128 256.342C702.269 256.518 702.428 256.677 702.569 256.853C702.604 256.889 702.621 256.924 702.657 256.941C702.798 257.1 702.939 257.241 703.097 257.4C703.115 257.417 703.133 257.435 703.15 257.453C703.309 257.611 703.468 257.77 703.644 257.928C703.679 257.964 703.714 257.999 703.75 258.034C703.926 258.193 704.085 258.351 704.261 258.492C704.278 258.51 704.278 258.51 704.296 258.528C704.455 258.669 704.631 258.81 704.807 258.951C704.843 258.986 704.878 259.003 704.913 259.039C705.089 259.18 705.266 259.321 705.46 259.444C705.495 259.462 705.53 259.497 705.565 259.515C705.742 259.638 705.9 259.761 706.076 259.885C706.094 259.902 706.129 259.92 706.147 259.937C706.341 260.061 706.535 260.184 706.711 260.308C706.746 260.325 706.799 260.36 706.834 260.378C707.028 260.501 707.222 260.625 707.434 260.731C707.434 260.731 707.451 260.731 707.451 260.748C707.645 260.854 707.839 260.96 708.051 261.065C708.086 261.083 708.139 261.118 708.174 261.136C708.368 261.242 708.58 261.347 708.791 261.435C708.826 261.453 708.862 261.471 708.897 261.488C709.091 261.576 709.285 261.665 709.479 261.753C709.514 261.77 709.549 261.788 709.567 261.788C709.778 261.876 709.99 261.964 710.201 262.052C710.254 262.07 710.29 262.088 710.342 262.105C710.572 262.193 710.783 262.264 711.012 262.352C712.352 264.555 714.767 266 717.499 266C720.232 266 722.647 264.555 723.986 262.352C724.215 262.281 724.427 262.193 724.656 262.105C724.709 262.088 724.744 262.07 724.797 262.052C725.009 261.964 725.22 261.876 725.432 261.788C725.467 261.77 725.502 261.753 725.52 261.753C725.714 261.665 725.908 261.576 726.102 261.488C726.137 261.471 726.172 261.453 726.207 261.435C726.419 261.33 726.613 261.242 726.824 261.136C726.86 261.118 726.912 261.083 726.948 261.065C727.142 260.96 727.353 260.854 727.547 260.748C727.547 260.748 727.565 260.748 727.565 260.731C727.759 260.607 727.97 260.501 728.164 260.378C728.199 260.36 728.252 260.325 728.287 260.308C728.481 260.184 728.675 260.061 728.852 259.937C728.869 259.92 728.904 259.902 728.922 259.885C729.098 259.761 729.275 259.638 729.433 259.515C729.468 259.497 729.504 259.462 729.539 259.444C729.715 259.303 729.892 259.18 730.085 259.039C730.121 259.003 730.156 258.986 730.191 258.951C730.368 258.81 730.526 258.669 730.702 258.528C730.72 258.51 730.72 258.51 730.738 258.492C730.914 258.334 731.073 258.193 731.249 258.034C731.284 257.999 731.319 257.964 731.355 257.928C731.513 257.77 731.69 257.611 731.848 257.453C731.866 257.435 731.883 257.417 731.901 257.4C732.042 257.241 732.201 257.1 732.342 256.941C732.377 256.906 732.395 256.871 732.43 256.853C732.589 256.695 732.73 256.518 732.871 256.342C732.906 256.307 732.924 256.272 732.959 256.237C733.1 256.078 733.241 255.902 733.364 255.743C733.382 255.725 733.399 255.708 733.399 255.69C733.541 255.514 733.682 255.32 733.823 255.144C733.858 255.109 733.875 255.056 733.911 255.02C734.052 254.827 734.175 254.65 734.298 254.457C734.316 254.439 734.316 254.421 734.334 254.404C734.457 254.227 734.563 254.051 734.686 253.857C734.704 253.822 734.739 253.787 734.757 253.734C734.88 253.54 734.986 253.346 735.109 253.152C735.127 253.117 735.145 253.082 735.18 253.047C735.286 252.87 735.391 252.677 735.48 252.483C735.497 252.465 735.515 252.43 735.515 252.412C735.621 252.201 735.726 252.007 735.814 251.795C735.832 251.742 735.85 251.707 735.885 251.654C735.991 251.443 736.079 251.231 736.167 251.02C736.167 251.002 736.185 250.985 736.185 250.967C736.273 250.756 736.343 250.562 736.431 250.35C736.449 250.297 736.467 250.262 736.484 250.209C736.572 249.998 736.643 249.786 736.713 249.557C736.731 249.522 736.731 249.469 736.749 249.434C736.819 249.24 736.872 249.028 736.943 248.817C736.96 248.782 736.96 248.746 736.978 248.711C737.048 248.482 737.101 248.271 737.154 248.042C737.172 247.989 737.172 247.936 737.189 247.883C737.242 247.654 737.295 247.425 737.348 247.196C737.348 247.178 737.348 247.178 737.348 247.16C737.401 246.931 737.436 246.702 737.471 246.473C737.471 246.42 737.489 246.367 737.489 246.314C737.524 246.085 737.56 245.874 737.577 245.645C741.72 245.416 744.999 241.979 744.999 237.785C745.069 234.136 742.584 231.07 739.234 230.171ZM697.28 240.922V242.085C695.165 241.785 693.543 239.97 693.543 237.767C693.543 235.564 695.183 233.749 697.28 233.449V240.922ZM721.748 251.919L721.342 254.809C721.131 256.377 719.491 257.541 717.535 257.541C715.578 257.541 713.938 256.36 713.727 254.809L713.321 251.919C713.11 250.438 714.555 249.134 716.424 249.134H718.645C720.496 249.134 721.959 250.438 721.748 251.919ZM734.263 243.107C734.263 243.354 734.263 243.6 734.246 243.847C734.246 243.865 734.246 243.9 734.246 243.918C734.228 244.147 734.21 244.376 734.193 244.605C734.193 244.64 734.193 244.675 734.175 244.711C734.157 244.94 734.122 245.151 734.105 245.38C734.105 245.416 734.087 245.451 734.087 245.486C734.052 245.715 734.016 245.927 733.981 246.156C733.981 246.191 733.964 246.226 733.964 246.244C733.928 246.473 733.875 246.702 733.823 246.914C733.823 246.931 733.823 246.949 733.805 246.949C733.752 247.178 733.699 247.407 733.629 247.636V247.654C733.558 247.883 733.488 248.094 733.417 248.323C733.417 248.341 733.399 248.376 733.399 248.394C733.329 248.605 733.258 248.817 733.17 249.028C733.153 249.064 733.153 249.081 733.135 249.117C733.047 249.328 732.976 249.54 732.888 249.733C732.871 249.751 732.871 249.786 732.853 249.804C732.765 250.015 732.659 250.227 732.571 250.421C732.571 250.438 732.553 250.456 732.553 250.456C732.342 250.897 732.113 251.32 731.866 251.725C731.742 251.919 731.619 252.13 731.478 252.324C731.478 252.342 731.46 252.342 731.46 252.359C731.337 252.553 731.196 252.747 731.055 252.923C731.037 252.941 731.037 252.941 731.02 252.959C730.879 253.152 730.738 253.329 730.597 253.505L730.579 253.522C730.42 253.716 730.279 253.893 730.121 254.069C728.552 255.849 725.608 254.527 725.872 252.165L725.89 252.077C726.278 248.623 723.722 245.592 720.337 245.292C720.796 244.781 720.76 243.988 720.267 243.495C719.756 242.984 718.909 242.984 718.398 243.495C718.169 243.724 717.887 243.829 717.57 243.829C717.252 243.829 716.97 243.706 716.741 243.495C716.23 242.984 715.384 242.984 714.873 243.495C714.379 243.988 714.362 244.781 714.802 245.292C711.418 245.592 708.862 248.641 709.249 252.077C709.514 254.439 706.552 255.761 705.001 253.981C704.984 253.963 704.984 253.963 704.966 253.945C704.825 253.769 704.666 253.593 704.525 253.417C704.508 253.399 704.508 253.381 704.49 253.364C704.349 253.188 704.208 252.994 704.067 252.818C704.067 252.8 704.049 252.8 704.049 252.782C703.767 252.395 703.503 251.989 703.256 251.566C703.256 251.566 703.256 251.549 703.238 251.549C703.115 251.355 703.009 251.143 702.886 250.949C702.868 250.932 702.868 250.914 702.851 250.897C702.745 250.703 702.639 250.491 702.551 250.297C702.533 250.262 702.533 250.244 702.516 250.209C702.428 250.015 702.322 249.804 702.234 249.61C702.216 249.575 702.216 249.557 702.198 249.522C702.11 249.31 702.022 249.099 701.952 248.905C701.934 248.887 701.934 248.852 701.916 248.835C701.828 248.623 701.758 248.394 701.687 248.182C701.687 248.165 701.687 248.165 701.67 248.147C701.599 247.918 701.529 247.689 701.458 247.46V247.442C701.388 247.213 701.335 246.984 701.282 246.755C701.282 246.737 701.264 246.702 701.264 246.684C701.211 246.455 701.176 246.244 701.123 246.015C701.123 245.98 701.105 245.944 701.105 245.909C701.07 245.698 701.035 245.468 701 245.239C701 245.204 700.982 245.169 700.982 245.134C700.947 244.904 700.929 244.693 700.912 244.464C700.912 244.429 700.912 244.393 700.894 244.358C700.876 244.129 700.859 243.9 700.841 243.653C700.841 243.636 700.841 243.6 700.841 243.583C700.823 243.336 700.823 243.089 700.823 242.843V240.093C702.445 242.12 704.913 243.459 707.681 243.565C707.804 243.565 707.91 243.565 708.033 243.565C710.431 243.565 712.705 242.649 714.432 240.974C716.177 239.283 717.182 237.044 717.252 234.63C717.27 234.612 717.305 234.595 717.323 234.559C717.446 234.436 717.64 234.436 717.764 234.559C717.781 234.577 717.817 234.595 717.834 234.612C717.834 234.648 717.834 234.683 717.834 234.7C718.028 239.476 721.941 243.354 726.719 243.53C726.842 243.53 726.948 243.53 727.071 243.53C729.469 243.53 731.742 242.613 733.47 240.939C733.752 240.657 734.016 240.375 734.263 240.058V243.107ZM702.48 234.383L705.301 231.828C705.653 231.493 706.218 231.528 706.552 231.881C706.887 232.233 706.852 232.797 706.5 233.132L703.679 235.687C703.503 235.846 703.291 235.916 703.08 235.916C702.833 235.916 702.604 235.811 702.428 235.634C702.093 235.264 702.128 234.7 702.48 234.383ZM720.937 234.383L723.757 231.828C724.11 231.493 724.674 231.528 725.009 231.881C725.344 232.233 725.308 232.797 724.956 233.132L722.135 235.687C721.959 235.846 721.748 235.916 721.536 235.916C721.289 235.916 721.06 235.811 720.884 235.634C720.549 235.264 720.584 234.7 720.937 234.383ZM734.263 230.488C733.47 229.942 732.518 229.607 731.496 229.607H722.629C720.831 229.607 719.262 230.594 718.451 232.039C717.869 231.845 717.235 231.845 716.636 232.039C715.807 230.594 714.238 229.607 712.44 229.607H703.573C702.533 229.607 701.581 229.942 700.806 230.488V229.836C700.806 227.122 701.458 224.549 702.604 222.276C703.097 221.412 703.644 220.566 704.208 219.756C705.583 218.328 707.875 218.222 709.408 219.579C711.523 221.465 714.432 222.593 717.535 222.593C720.672 222.593 723.581 221.447 725.696 219.544C727.247 218.152 729.574 218.258 730.949 219.72C731.478 220.46 731.972 221.236 732.43 222.047C733.593 224.32 734.263 226.893 734.263 229.625V230.488V230.488ZM737.63 214.715C737.595 215.173 737.207 215.543 736.749 215.543C736.731 215.543 736.714 215.543 736.696 215.543C736.202 215.508 735.85 215.085 735.885 214.609C736.238 209.534 731.619 208.811 731.408 208.794C730.932 208.723 730.597 208.283 730.65 207.807C730.72 207.331 731.161 206.996 731.637 207.049C731.707 207.049 738.088 207.983 737.63 214.715ZM737.789 242.085V240.922V233.467C739.904 233.766 741.526 235.582 741.526 237.785C741.526 239.987 739.904 241.785 737.789 242.085Z" fill="#2D3B48"/>
</svg>
