<svg width="25" height="19" viewBox="0 0 25 19" fill="none" xmlns="http://www.w3.org/2000/svg">
<path d="M25 2.37504C24.0564 2.75119 23.0605 2.99125 22.0443 3.08747C22.5828 2.79624 23.056 2.4049 23.4365 1.93612C23.817 1.46734 24.0973 0.930427 24.2611 0.356483C23.2713 0.924408 22.1885 1.32593 21.0591 1.54387C20.5833 1.05932 20.0107 0.672737 19.3757 0.40744C18.7407 0.142142 18.0566 0.00363143 17.3645 0.000266844C16.6996 -0.00608091 16.0401 0.115506 15.4245 0.357912C14.8089 0.600318 14.2497 0.958674 13.7795 1.41201C13.3093 1.86534 12.9376 2.40454 12.6862 2.99805C12.4348 3.59157 12.3087 4.22747 12.3153 4.86855C12.2952 5.22886 12.3369 5.5899 12.4384 5.93719C10.4245 5.82016 8.45678 5.30678 6.65647 4.42868C4.85615 3.55058 3.26139 2.32635 1.97044 0.831436C1.46952 1.57199 1.21199 2.44102 1.23153 3.32494C1.2193 4.12327 1.41601 4.91169 1.80346 5.61732C2.19092 6.32294 2.75662 6.92301 3.44828 7.36205C2.6302 7.34804 1.82763 7.14441 1.10837 6.76836C1.10737 7.89212 1.51259 8.9811 2.25432 9.84794C2.99605 10.7148 4.02792 11.3053 5.17241 11.5179C4.72941 11.6217 4.2729 11.6617 3.81773 11.6366C3.48454 11.6559 3.15053 11.6157 2.83251 11.5179C3.15845 12.4817 3.78058 13.3271 4.61638 13.9421C5.45218 14.5571 6.46215 14.9125 7.51232 14.9613C5.71164 16.2922 3.5003 17.0029 1.23153 16.9799C0.817184 16.9993 0.402142 16.9593 0 16.8611C2.31114 18.2954 5.01044 19.039 7.75862 18.9984C9.65448 19.0111 11.534 18.6603 13.2881 17.9667C15.0422 17.273 16.6358 16.2501 17.9764 14.9576C19.317 13.665 20.3779 12.1285 21.0974 10.4373C21.8168 8.74611 22.1806 6.93392 22.1675 5.10602V4.51233C23.3475 4.15145 24.3531 3.39267 25 2.37504Z" fill="#005DAA"/>
</svg>
