<svg fill="none" height="82" viewBox="0 0 82 82" width="82" xmlns="http://www.w3.org/2000/svg"><circle cx="41" cy="41" fill="#d1dce7" r="41"/><g fill="#000"><path d="m39.8174 43.811c.451.451 1.045.693 1.683.693s1.232-.253 1.683-.693c.319-.319.319-.847 0-1.166s-.847-.319-1.166 0c-.143.143-.319.209-.517.209s-.374-.077-.517-.209c-.319-.319-.847-.319-1.166 0s-.319.836 0 1.166z"/><path d="m44.2504 46.869c-.088-.066-.209-.11-.341-.099 0 0 0 0-.011 0h-.099c-.11-.033-.264-.165-.396-.275-.187-.165-.385-.341-.66-.429-.352-.121-.77-.088-1.254.077-.473-.165-.902-.187-1.254-.077-.099.033-.187.077-.286.143-.055.033-.099.066-.154.11l-.011.011c-.022.022-.044.033-.066.055l-.011.011c-.022.011-.033.033-.055.044l-.077.066c-.077.066-.143.121-.209.176l-.077.055-.011.011h-.011c-.011.011-.022.011-.044.022 0 0-.011 0-.011.011h-.011-.011-.077c-.066 0-.143.011-.209.033-.132.044-.231.132-.275.231v.011.011c-.044.11-.022.231.066.33.055.066.132.121.22.143.011 0 .022.011.022.011l.011.011.055.044.011.011.011.011c.022.022.033.033.055.055l.011.011c.022.022.044.055.066.088v.011c.011.022.033.044.044.055.011.022.022.033.044.055s.033.055.055.077l.011.022c.011.022.022.033.044.055l.022.022c.011.022.033.033.044.055l.011.011.066.066c.022.022.033.044.055.055l.011.011.055.055.011.011c.044.044.099.077.143.121.022.022.044.033.066.055l.011.011c.022.011.044.033.077.044h.011c.055.033.11.066.176.099.033.011.055.022.088.044.088.044.187.077.286.099.286.077.605.121 1.001.121 1.1 0 1.749-.308 2.255-1.045.165-.242.275-.33.33-.363.055-.011.099-.033.143-.066.11-.066.187-.176.187-.297.011-.11-.044-.22-.154-.297zm-5.39.649c-.011 0-.022-.011-.022-.011.011 0 .022 0 .022.011z"/><path d="m44.7011 39.455c.616-.616 1.628-.616 2.255 0 .165.165.374.242.583.242s.4181-.077.5831-.242c.319-.319.319-.847 0-1.166-1.265-1.265-3.3221-1.265-4.5871 0-.319.319-.319.847 0 1.166.319.33.847.33 1.166 0z"/><path d="m36.0444 39.455c.616-.616 1.628-.616 2.255 0 .165.165.374.242.583.242s.418-.077.583-.242c.319-.319.319-.847 0-1.166-1.265-1.265-3.322-1.265-4.587 0-.319.319-.319.847 0 1.166.33.33.847.33 1.166 0z"/><path d="m61.1133 37.783c1.54-4.598.836-8.998-2.112-13.101-5.984-8.349-14.663-10.098-20.625-8.14-3.124 1.034-5.456 3.036-6.699 5.599-.198-.011-.385-.022-.583-.022-2.783 0-5.324 1.1-7.139 3.091-1.727 1.925-2.695 4.543-2.695 7.37 0 3.575 1.034 6.281 3.069 8.063v.055c0 2.717 2.211 4.917 4.917 4.917h.517c.792 1.991 2.09 3.74 3.718 5.093l-3.069 2.068c-1.837 1.243-2.937 3.3-2.937 5.522v.088c0 2.86 1.793 5.346 4.433 6.281.011 0 .011 0 .022.011.088.033.187.066.275.088.022 0 .033.011.055.011.099.033.209.055.308.088.539.132 1.089.253 1.628.352 2.365.462 4.774.693 7.183.693 2.816 0 5.632-.308 8.371-.946l.605-.143c.11-.022.209-.055.319-.077.011 0 .033-.011.044-.011 2.849-.814 4.807-3.399 4.807-6.402 0-2.244-1.122-4.323-3.003-5.566l-2.926-1.925c1.309-.616 3.344-1.98 5.434-3.982 2.046-1.958 4.752-5.115 6.083-9.075zm-3.19-9.922c.066.253.121.517.176.77.066.297-.132.583-.429.649-.033.011-.077.011-.11.011-.253 0-.484-.176-.539-.44-.055-.242-.11-.484-.165-.726-.077-.297.099-.594.396-.671.297-.066.605.11.671.407zm-7.821-7.887c.099-.286.407-.451.693-.352.165.055 4.147 1.397 6.49 6.105.132.275.022.605-.253.737-.077.044-.165.055-.242.055-.198 0-.396-.11-.495-.308-2.134-4.301-5.808-5.544-5.841-5.555-.286-.088-.451-.396-.352-.682zm-21.241 23.419c-1.32-.187-2.332-1.32-2.332-2.695 0-.154.011-.297.033-.44.011-.044.011-.077.022-.121s.022-.077.033-.121c.011-.033.022-.077.033-.11.011-.044.022-.077.033-.11s.022-.077.044-.11c.011-.033.033-.066.044-.099.022-.033.033-.077.055-.11.011-.022.022-.044.044-.066.231-.429.572-.781.979-1.034.055-.033.121-.066.187-.099h.011c.066-.033.121-.055.187-.088.011 0 .011 0 .022-.011.066-.022.121-.044.187-.066.011 0 .022-.011.033-.011.066-.022.121-.033.187-.055.011 0 .022 0 .033-.011.066-.011.121-.022.187-.033v2.937 1.023 1.43zm2.244-1.518c-.011-.154-.022-.308-.033-.451 0-.011 0-.011 0-.022-.011-.154-.011-.297-.011-.44v-4.07-2.64c0-.099 0-.209 0-.308 0-.033 0-.077 0-.11 0-.066 0-.121.011-.187 0-.055.011-.099.011-.154 0-.044.011-.088.011-.132.176-2.057.946-3.949 2.134-5.5 3.63.077 6.974 1.144 9.944 3.168 3.256 2.211 6.204 5.643 8.756 10.197v.11c0 .055 0 .11-.011.154 0 .055-.011.121-.011.176 0 .033 0 .066-.011.088-.011.066-.011.143-.022.209v.044c-.418 4.103-3.223 7.502-6.996 8.8-.033.011-.055.022-.088.033-.055.022-.121.044-.176.055-.077.022-.154.044-.231.066-.044.011-.088.022-.132.033-.077.022-.143.044-.22.055-.033.011-.066.022-.099.022-.088.022-.176.044-.264.055-.011 0-.033.011-.044.011-.11.022-.22.044-.33.066-.011 0-.033 0-.044.011-.099.011-.187.033-.286.044-.022 0-.044.011-.066.011-.22.033-.44.055-.66.066-.022 0-.055 0-.077 0-.088 0-.176.011-.253.011-.033 0-.055 0-.088 0-.11 0-.22.011-.33.011s-.22 0-.33-.011c-.033 0-.055 0-.088 0-.088 0-.176-.011-.264-.011-.022 0-.044 0-.077 0-.11-.011-.22-.022-.33-.033-.011 0-.022 0-.022 0-.099-.011-.209-.022-.308-.033-.022 0-.044-.011-.077-.011-.099-.011-.198-.033-.297-.044-.011 0-.022 0-.033 0-.11-.022-.22-.044-.319-.066-.022 0-.055-.011-.077-.022-.077-.022-.165-.033-.242-.055-.033-.011-.066-.011-.099-.022-.088-.022-.187-.044-.275-.077-.044-.011-.088-.022-.132-.044-.055-.011-.11-.033-.165-.055s-.11-.033-.165-.055c-.033-.011-.066-.022-.099-.033-3.806-1.287-6.622-4.752-6.985-8.91zm12.32 18.513c-1.166.748-2.673.748-3.85 0-1.001-.649-2.101-1.1-3.245-1.364v-6.545c.352.154.704.297 1.056.418.033.011.077.022.11.033.066.022.132.044.198.066.055.022.11.033.176.055.055.011.099.033.154.044.11.033.22.066.33.088.022 0 .033.011.055.011.099.022.198.044.297.077.033.011.066.011.088.022.088.022.187.044.275.055.033.011.055.011.088.022.11.022.209.033.319.055.011 0 .033 0 .044.011.242.044.495.066.748.099.033 0 .055 0 .088.011.088.011.187.011.275.022.033 0 .077 0 .11.011.088 0 .176.011.264.011h.11c.121 0 .242.011.363.011s.242 0 .363-.011h.099c.088 0 .176-.011.264-.011.033 0 .077 0 .11-.011.088-.011.176-.011.275-.022.033 0 .066 0 .088-.011.11-.011.22-.022.33-.033h.022c.253-.033.495-.066.737-.11.022 0 .044-.011.066-.011.099-.022.198-.033.286-.055.033-.011.055-.011.088-.022.088-.022.176-.044.275-.066.033-.011.055-.011.088-.022.11-.022.22-.055.319-.088.044-.011.099-.033.143-.044.066-.022.132-.044.198-.055.066-.022.132-.044.209-.066l.099-.033c.077-.033.165-.055.242-.088.011 0 .022-.011.033-.011.165-.055.319-.121.484-.187v6.479c-.979.253-1.969.682-2.871 1.265zm-13.761-2.09c0-1.485.737-2.871 1.969-3.696l2.497-1.683v5.841c-.066 0-.121 0-.187 0-1.419.011-2.816.319-4.103.891-.121-.396-.176-.825-.176-1.265zm21.67-3.685c1.254.825 2.013 2.222 2.013 3.729 0 .451-.066.891-.198 1.309-1.287-.572-2.673-.88-4.092-.891-.176 0-.341 0-.517.011v-5.995z"/></g></svg>